<svg xmlns="http://www.w3.org/2000/svg" xmlns:xlink="http://www.w3.org/1999/xlink" viewBox="0 0 415 220.46"><defs><style>.cls-1{fill:none;}.cls-2{isolation:isolate;}.cls-3{fill:#fff;}.cls-4{mix-blend-mode:multiply;fill:url(#radial-gradient);}.cls-5{clip-path:url(#clip-path);}.cls-6{fill:url(#radial-gradient-2);}.cls-7{fill:url(#radial-gradient-3);}.cls-8{fill:url(#radial-gradient-4);}.cls-9{fill:url(#radial-gradient-5);}.cls-10{fill:url(#radial-gradient-6);}.cls-11{fill:url(#radial-gradient-7);}.cls-12{fill:url(#radial-gradient-8);}.cls-13{fill:url(#radial-gradient-9);}.cls-14{fill:url(#radial-gradient-10);}.cls-15{fill:url(#radial-gradient-11);}.cls-16{fill:url(#radial-gradient-12);}.cls-17{fill:url(#radial-gradient-13);}.cls-18{fill:url(#radial-gradient-14);}.cls-19{fill:url(#radial-gradient-15);}.cls-20{fill:url(#radial-gradient-16);}.cls-21{fill:url(#radial-gradient-17);}.cls-22{fill:url(#radial-gradient-18);}.cls-23{fill:url(#radial-gradient-19);}.cls-24{fill:url(#radial-gradient-20);}.cls-25{fill:url(#radial-gradient-21);}.cls-26{fill:url(#radial-gradient-22);}.cls-27{fill:url(#radial-gradient-23);}.cls-28{fill:url(#radial-gradient-24);}.cls-29{fill:url(#radial-gradient-25);}.cls-30{fill:url(#radial-gradient-26);}.cls-31{fill:url(#radial-gradient-27);}.cls-32{fill:url(#radial-gradient-28);}.cls-33{fill:url(#radial-gradient-29);}.cls-34{fill:url(#radial-gradient-30);}.cls-35{fill:url(#radial-gradient-31);}.cls-36{fill:url(#radial-gradient-32);}.cls-37{fill:url(#radial-gradient-33);}.cls-38{fill:url(#radial-gradient-34);}.cls-39{fill:url(#radial-gradient-35);}.cls-40{fill:url(#radial-gradient-36);}.cls-41{fill:url(#radial-gradient-37);}.cls-42{fill:url(#radial-gradient-38);}.cls-43{fill:url(#radial-gradient-39);}.cls-44{fill:url(#radial-gradient-40);}.cls-45{fill:url(#radial-gradient-41);}.cls-46{fill:url(#radial-gradient-42);}.cls-47{fill:url(#radial-gradient-43);}.cls-48{fill:url(#radial-gradient-44);}.cls-49{fill:url(#radial-gradient-45);}.cls-50{fill:url(#radial-gradient-46);}.cls-51{fill:url(#radial-gradient-47);}.cls-52{fill:url(#radial-gradient-48);}.cls-53{fill:url(#radial-gradient-49);}.cls-54{fill:url(#radial-gradient-50);}.cls-55{fill:url(#radial-gradient-51);}.cls-56{fill:url(#radial-gradient-52);}.cls-57{fill:url(#radial-gradient-53);}.cls-58{fill:url(#radial-gradient-54);}.cls-59{fill:url(#radial-gradient-55);}.cls-60{fill:url(#radial-gradient-56);}.cls-61{fill:url(#radial-gradient-57);}.cls-62{fill:url(#radial-gradient-58);}.cls-63{fill:url(#radial-gradient-59);}.cls-64{fill:url(#radial-gradient-60);}.cls-65{fill:url(#radial-gradient-61);}.cls-66{fill:url(#radial-gradient-62);}.cls-67{fill:url(#radial-gradient-63);}.cls-68{fill:url(#radial-gradient-64);}.cls-69{fill:url(#radial-gradient-65);}.cls-70{fill:url(#radial-gradient-66);}.cls-71{fill:url(#radial-gradient-67);}.cls-72{fill:url(#radial-gradient-68);}.cls-73{fill:url(#radial-gradient-69);}.cls-74{fill:url(#radial-gradient-70);}.cls-75{fill:url(#radial-gradient-71);}.cls-76{fill:url(#radial-gradient-72);}.cls-77{fill:url(#radial-gradient-73);}.cls-78{fill:url(#radial-gradient-74);}.cls-79{fill:url(#radial-gradient-75);}.cls-80{fill:url(#radial-gradient-76);}.cls-81{fill:url(#radial-gradient-77);}.cls-82{fill:url(#radial-gradient-78);}.cls-83{fill:url(#radial-gradient-79);}.cls-84{fill:url(#radial-gradient-80);}.cls-85{fill:url(#radial-gradient-81);}.cls-86{fill:url(#radial-gradient-82);}.cls-87{fill:url(#radial-gradient-83);}.cls-88{fill:url(#radial-gradient-84);}.cls-89{fill:url(#radial-gradient-85);}.cls-90{fill:url(#radial-gradient-86);}.cls-91{fill:url(#radial-gradient-87);}.cls-92{fill:url(#radial-gradient-88);}.cls-93{fill:url(#radial-gradient-89);}.cls-94{fill:url(#radial-gradient-90);}.cls-95{fill:url(#radial-gradient-91);}.cls-96{fill:url(#radial-gradient-92);}.cls-97{fill:url(#radial-gradient-93);}.cls-98{fill:url(#radial-gradient-94);}.cls-99{fill:url(#radial-gradient-95);}.cls-100{fill:url(#radial-gradient-96);}.cls-101{fill:url(#radial-gradient-97);}.cls-102{fill:url(#radial-gradient-98);}.cls-103{fill:url(#radial-gradient-99);}.cls-104{fill:url(#radial-gradient-100);}.cls-105{fill:url(#radial-gradient-101);}.cls-106{fill:url(#radial-gradient-102);}.cls-107{fill:url(#radial-gradient-103);}.cls-108{fill:url(#radial-gradient-104);}.cls-109{fill:url(#radial-gradient-105);}.cls-110{fill:url(#radial-gradient-106);}.cls-111{fill:url(#radial-gradient-107);}.cls-112{fill:url(#radial-gradient-108);}.cls-113{fill:url(#radial-gradient-109);}.cls-114{fill:url(#radial-gradient-110);}.cls-115{fill:url(#radial-gradient-111);}.cls-116{fill:url(#radial-gradient-112);}.cls-117{fill:url(#radial-gradient-113);}.cls-118{fill:url(#radial-gradient-114);}.cls-119{fill:url(#radial-gradient-115);}.cls-120{fill:url(#radial-gradient-116);}.cls-121{fill:url(#radial-gradient-117);}.cls-122{fill:url(#radial-gradient-118);}.cls-123{fill:url(#radial-gradient-119);}.cls-124{fill:url(#radial-gradient-120);}.cls-125{fill:url(#radial-gradient-121);}.cls-126{fill:url(#radial-gradient-122);}.cls-127{fill:url(#radial-gradient-123);}.cls-128{fill:url(#radial-gradient-124);}.cls-129{fill:url(#radial-gradient-125);}.cls-130{fill:url(#radial-gradient-126);}.cls-131{fill:url(#radial-gradient-127);}.cls-132{fill:url(#radial-gradient-128);}.cls-133{fill:url(#radial-gradient-129);}.cls-134{fill:url(#radial-gradient-130);}.cls-135{fill:url(#radial-gradient-131);}.cls-136{fill:url(#radial-gradient-132);}.cls-137{fill:url(#radial-gradient-133);}.cls-138{fill:url(#radial-gradient-134);}.cls-139{fill:url(#radial-gradient-135);}.cls-140{fill:url(#radial-gradient-136);}.cls-141{fill:url(#radial-gradient-137);}.cls-142{fill:url(#radial-gradient-138);}.cls-143{fill:url(#radial-gradient-139);}.cls-144{fill:url(#radial-gradient-140);}.cls-145{fill:url(#radial-gradient-141);}.cls-146{fill:url(#radial-gradient-142);}.cls-147{fill:url(#radial-gradient-143);}.cls-148{fill:url(#radial-gradient-144);}.cls-149{fill:url(#radial-gradient-145);}.cls-150{fill:url(#radial-gradient-146);}.cls-151{fill:url(#radial-gradient-147);}.cls-152{fill:url(#radial-gradient-148);}.cls-153{fill:url(#radial-gradient-149);}.cls-154{fill:url(#radial-gradient-150);}.cls-155{fill:url(#radial-gradient-151);}.cls-156{fill:url(#radial-gradient-152);}.cls-157{fill:url(#radial-gradient-153);}.cls-158{fill:url(#radial-gradient-154);}.cls-159{fill:url(#radial-gradient-155);}.cls-160{fill:url(#radial-gradient-156);}.cls-161{fill:url(#radial-gradient-157);}.cls-162{fill:url(#radial-gradient-158);}.cls-163{fill:url(#radial-gradient-159);}.cls-164{fill:url(#radial-gradient-160);}.cls-165{fill:url(#radial-gradient-161);}.cls-166{fill:url(#radial-gradient-162);}.cls-167{fill:url(#radial-gradient-163);}.cls-168{fill:url(#radial-gradient-164);}.cls-169{fill:url(#radial-gradient-165);}.cls-170{fill:url(#radial-gradient-166);}.cls-171{fill:url(#radial-gradient-167);}.cls-172{fill:url(#radial-gradient-168);}.cls-173{fill:url(#radial-gradient-169);}.cls-174{fill:url(#radial-gradient-170);}.cls-175{fill:url(#radial-gradient-171);}.cls-176{fill:url(#radial-gradient-172);}.cls-177{fill:url(#radial-gradient-173);}.cls-178{fill:url(#radial-gradient-174);}</style><radialGradient id="radial-gradient" cx="396.3" cy="3184.03" r="267.5" gradientTransform="translate(-39.22 -341.39) scale(0.3 0.14)" gradientUnits="userSpaceOnUse"><stop offset="0.15" stop-color="#d9d9d9"/><stop offset="0.39" stop-color="#e9e9e9"/><stop offset="0.74" stop-color="#f9f9f9"/><stop offset="1" stop-color="#fff"/></radialGradient><clipPath id="clip-path" transform="translate(-37 -114.93)"><path class="cls-1" d="M186.58,163.1c0,26-29.46,47.16-65.81,47.16S55,189.14,55,163.1,84.42,116,120.77,116,186.58,137.06,186.58,163.1Z"/></clipPath><radialGradient id="radial-gradient-2" cx="456.25" cy="-804.35" r="322.67" gradientTransform="translate(-8.95 165.36) scale(0.2 0.15)" gradientUnits="userSpaceOnUse"><stop offset="0.15" stop-color="#666"/><stop offset="0.28" stop-color="#6f6f6f"/><stop offset="0.49" stop-color="#878787"/><stop offset="0.76" stop-color="#afafaf"/><stop offset="1" stop-color="#d9d9d9"/></radialGradient><radialGradient id="radial-gradient-3" cx="456.25" cy="-804.35" r="322.67" xlink:href="#radial-gradient-2"/><radialGradient id="radial-gradient-4" cx="456.25" cy="-804.35" r="322.67" xlink:href="#radial-gradient-2"/><radialGradient id="radial-gradient-5" cx="456.27" cy="-804.35" r="322.65" xlink:href="#radial-gradient-2"/><radialGradient id="radial-gradient-6" cx="456.25" cy="-804.35" r="322.68" xlink:href="#radial-gradient-2"/><radialGradient id="radial-gradient-7" cx="456.25" cy="-804.35" r="322.67" xlink:href="#radial-gradient-2"/><radialGradient id="radial-gradient-8" cx="456.24" cy="-804.35" r="322.68" xlink:href="#radial-gradient-2"/><radialGradient id="radial-gradient-9" cx="456.26" cy="-804.35" r="322.66" xlink:href="#radial-gradient-2"/><radialGradient id="radial-gradient-10" cx="456.25" cy="-804.35" r="322.67" xlink:href="#radial-gradient-2"/><radialGradient id="radial-gradient-11" cx="456.25" cy="-804.35" r="322.67" xlink:href="#radial-gradient-2"/><radialGradient id="radial-gradient-12" cx="456.24" cy="-804.35" r="322.68" xlink:href="#radial-gradient-2"/><radialGradient id="radial-gradient-13" cx="456.25" cy="-804.35" r="322.67" xlink:href="#radial-gradient-2"/><radialGradient id="radial-gradient-14" cx="456.24" cy="-804.35" r="322.68" xlink:href="#radial-gradient-2"/><radialGradient id="radial-gradient-15" cx="456.25" cy="-804.35" r="322.67" xlink:href="#radial-gradient-2"/><radialGradient id="radial-gradient-16" cx="456.25" cy="-804.35" r="322.67" xlink:href="#radial-gradient-2"/><radialGradient id="radial-gradient-17" cx="456.25" cy="-804.35" r="322.67" xlink:href="#radial-gradient-2"/><radialGradient id="radial-gradient-18" cx="456.26" cy="-804.36" r="322.66" xlink:href="#radial-gradient-2"/><radialGradient id="radial-gradient-19" cx="456.25" cy="-804.35" r="322.67" xlink:href="#radial-gradient-2"/><radialGradient id="radial-gradient-20" cx="456.25" cy="-804.35" r="322.67" xlink:href="#radial-gradient-2"/><radialGradient id="radial-gradient-21" cx="456.25" cy="-804.35" r="322.67" xlink:href="#radial-gradient-2"/><radialGradient id="radial-gradient-22" cx="456.25" cy="-804.35" r="322.67" xlink:href="#radial-gradient-2"/><radialGradient id="radial-gradient-23" cx="456.25" cy="-804.35" r="322.67" xlink:href="#radial-gradient-2"/><radialGradient id="radial-gradient-24" cx="456.25" cy="-804.35" r="322.67" xlink:href="#radial-gradient-2"/><radialGradient id="radial-gradient-25" cx="456.25" cy="-804.35" r="322.67" xlink:href="#radial-gradient-2"/><radialGradient id="radial-gradient-26" cx="456.25" cy="-804.35" r="322.67" xlink:href="#radial-gradient-2"/><radialGradient id="radial-gradient-27" cx="456.25" cy="-804.35" r="322.67" xlink:href="#radial-gradient-2"/><radialGradient id="radial-gradient-28" cx="456.25" cy="-804.35" r="322.67" xlink:href="#radial-gradient-2"/><radialGradient id="radial-gradient-29" cx="456.25" cy="-804.35" r="322.67" xlink:href="#radial-gradient-2"/><radialGradient id="radial-gradient-30" cx="456.25" cy="-804.35" r="322.68" xlink:href="#radial-gradient-2"/><radialGradient id="radial-gradient-31" cx="456.25" cy="-804.35" r="322.67" xlink:href="#radial-gradient-2"/><radialGradient id="radial-gradient-32" cx="456.25" cy="-804.35" r="322.67" xlink:href="#radial-gradient-2"/><radialGradient id="radial-gradient-33" cx="456.25" cy="-804.35" r="322.67" gradientTransform="translate(28.05 280.3) scale(0.2 0.15)" xlink:href="#radial-gradient-2"/><radialGradient id="radial-gradient-34" cx="456.25" cy="-804.35" r="322.67" xlink:href="#radial-gradient-2"/><radialGradient id="radial-gradient-35" cx="456.24" cy="-804.35" r="322.67" xlink:href="#radial-gradient-2"/><radialGradient id="radial-gradient-36" cx="456.25" cy="-804.35" r="322.68" xlink:href="#radial-gradient-2"/><radialGradient id="radial-gradient-37" cx="456.25" cy="-804.35" r="322.67" xlink:href="#radial-gradient-2"/><radialGradient id="radial-gradient-38" cx="456.25" cy="-804.35" r="322.67" xlink:href="#radial-gradient-2"/><radialGradient id="radial-gradient-39" cx="456.25" cy="-804.35" r="322.68" xlink:href="#radial-gradient-2"/><radialGradient id="radial-gradient-40" cx="456.25" cy="-804.35" r="322.67" xlink:href="#radial-gradient-2"/><radialGradient id="radial-gradient-41" cx="456.25" cy="-804.35" r="322.67" xlink:href="#radial-gradient-2"/><radialGradient id="radial-gradient-42" cx="456.25" cy="-804.35" r="322.67" xlink:href="#radial-gradient-2"/><radialGradient id="radial-gradient-43" cx="456.25" cy="-804.35" r="322.67" xlink:href="#radial-gradient-2"/><radialGradient id="radial-gradient-44" cx="456.25" cy="-804.35" r="322.67" xlink:href="#radial-gradient-2"/><radialGradient id="radial-gradient-45" cx="456.25" cy="-804.35" r="322.67" xlink:href="#radial-gradient-2"/><radialGradient id="radial-gradient-46" cx="456.25" cy="-804.35" r="322.67" xlink:href="#radial-gradient-2"/><radialGradient id="radial-gradient-47" cx="456.25" cy="-804.35" r="322.67" xlink:href="#radial-gradient-2"/><radialGradient id="radial-gradient-48" cx="456.25" cy="-804.35" r="322.67" xlink:href="#radial-gradient-2"/><radialGradient id="radial-gradient-49" cx="456.25" cy="-804.35" r="322.67" xlink:href="#radial-gradient-2"/><radialGradient id="radial-gradient-50" cx="456.25" cy="-804.35" r="322.67" xlink:href="#radial-gradient-2"/><radialGradient id="radial-gradient-51" cx="456.25" cy="-804.35" r="322.67" xlink:href="#radial-gradient-2"/><radialGradient id="radial-gradient-52" cx="456.25" cy="-804.35" r="322.67" xlink:href="#radial-gradient-2"/><radialGradient id="radial-gradient-53" cx="456.24" cy="-804.35" r="322.68" xlink:href="#radial-gradient-2"/><radialGradient id="radial-gradient-54" cx="456.25" cy="-804.35" r="322.67" xlink:href="#radial-gradient-2"/><radialGradient id="radial-gradient-55" cx="456.25" cy="-804.35" r="322.68" xlink:href="#radial-gradient-2"/><radialGradient id="radial-gradient-56" cx="456.25" cy="-804.35" r="322.67" xlink:href="#radial-gradient-2"/><radialGradient id="radial-gradient-57" cx="456.25" cy="-804.36" r="322.66" xlink:href="#radial-gradient-2"/><radialGradient id="radial-gradient-58" cx="456.25" cy="-804.35" r="322.67" xlink:href="#radial-gradient-2"/><radialGradient id="radial-gradient-59" cx="456.25" cy="-804.34" r="322.68" xlink:href="#radial-gradient-2"/><radialGradient id="radial-gradient-60" cx="456.25" cy="-804.36" r="322.67" xlink:href="#radial-gradient-2"/><radialGradient id="radial-gradient-61" cx="456.25" cy="-804.34" r="322.68" xlink:href="#radial-gradient-2"/><radialGradient id="radial-gradient-62" cx="456.25" cy="-804.36" r="322.66" xlink:href="#radial-gradient-2"/><radialGradient id="radial-gradient-63" cx="456.25" cy="-804.35" r="322.67" gradientTransform="translate(28.05 280.3) scale(0.2 0.15)" xlink:href="#radial-gradient-2"/><radialGradient id="radial-gradient-64" cx="456.25" cy="-804.36" r="322.66" xlink:href="#radial-gradient-2"/><radialGradient id="radial-gradient-65" cx="456.25" cy="-804.36" r="322.65" xlink:href="#radial-gradient-2"/><radialGradient id="radial-gradient-66" cx="456.25" cy="-804.35" r="322.67" xlink:href="#radial-gradient-2"/><radialGradient id="radial-gradient-67" cx="456.25" cy="-804.36" r="322.65" xlink:href="#radial-gradient-2"/><radialGradient id="radial-gradient-68" cx="456.25" cy="-804.35" r="322.67" xlink:href="#radial-gradient-2"/><radialGradient id="radial-gradient-69" cx="456.25" cy="-804.34" r="322.68" xlink:href="#radial-gradient-2"/><radialGradient id="radial-gradient-70" cx="456.25" cy="-804.35" r="322.67" xlink:href="#radial-gradient-2"/><radialGradient id="radial-gradient-71" cx="456.25" cy="-804.35" r="322.67" xlink:href="#radial-gradient-2"/><radialGradient id="radial-gradient-72" cx="456.25" cy="-804.36" r="322.67" xlink:href="#radial-gradient-2"/><radialGradient id="radial-gradient-73" cx="456.25" cy="-804.35" r="322.67" gradientTransform="translate(28.05 280.3) scale(0.2 0.15)" xlink:href="#radial-gradient-2"/><radialGradient id="radial-gradient-74" cx="456.25" cy="-804.35" r="322.67" xlink:href="#radial-gradient-2"/><radialGradient id="radial-gradient-75" cx="456.25" cy="-804.35" r="322.67" xlink:href="#radial-gradient-2"/><radialGradient id="radial-gradient-76" cx="456.25" cy="-804.35" r="322.67" xlink:href="#radial-gradient-2"/><radialGradient id="radial-gradient-77" cx="456.25" cy="-804.34" r="322.68" xlink:href="#radial-gradient-2"/><radialGradient id="radial-gradient-78" cx="456.25" cy="-804.34" r="322.68" xlink:href="#radial-gradient-2"/><radialGradient id="radial-gradient-79" cx="456.25" cy="-804.33" r="322.7" xlink:href="#radial-gradient-2"/><radialGradient id="radial-gradient-80" cx="456.25" cy="-804.3" r="322.73" xlink:href="#radial-gradient-2"/><radialGradient id="radial-gradient-81" cx="456.25" cy="-804.38" r="322.64" xlink:href="#radial-gradient-2"/><radialGradient id="radial-gradient-82" cx="456.25" cy="-804.38" r="322.64" xlink:href="#radial-gradient-2"/><radialGradient id="radial-gradient-83" cx="456.25" cy="-804.32" r="322.7" xlink:href="#radial-gradient-2"/><radialGradient id="radial-gradient-84" cx="456.25" cy="-804.36" r="322.66" xlink:href="#radial-gradient-2"/><radialGradient id="radial-gradient-85" cx="456.25" cy="-804.34" r="322.68" xlink:href="#radial-gradient-2"/><radialGradient id="radial-gradient-86" cx="456.25" cy="-804.34" r="322.68" xlink:href="#radial-gradient-2"/><radialGradient id="radial-gradient-87" cx="456.25" cy="-804.35" r="322.67" xlink:href="#radial-gradient-2"/><radialGradient id="radial-gradient-88" cx="456.25" cy="-804.35" r="322.67" xlink:href="#radial-gradient-2"/><radialGradient id="radial-gradient-89" cx="456.25" cy="-804.35" r="322.67" xlink:href="#radial-gradient-2"/><radialGradient id="radial-gradient-90" cx="456.25" cy="-804.35" r="322.68" xlink:href="#radial-gradient-2"/><radialGradient id="radial-gradient-91" cx="456.25" cy="-804.34" r="322.68" xlink:href="#radial-gradient-2"/><radialGradient id="radial-gradient-92" cx="456.25" cy="-804.35" r="322.67" xlink:href="#radial-gradient-2"/><radialGradient id="radial-gradient-93" cx="456.25" cy="-804.35" r="322.68" xlink:href="#radial-gradient-2"/><radialGradient id="radial-gradient-94" cx="456.25" cy="-804.35" r="322.67" xlink:href="#radial-gradient-2"/><radialGradient id="radial-gradient-95" cx="456.25" cy="-804.35" r="322.67" xlink:href="#radial-gradient-2"/><radialGradient id="radial-gradient-96" cx="456.25" cy="-804.36" r="322.66" xlink:href="#radial-gradient-2"/><radialGradient id="radial-gradient-97" cx="456.25" cy="-804.36" r="322.66" xlink:href="#radial-gradient-2"/><radialGradient id="radial-gradient-98" cx="456.25" cy="-804.35" r="322.67" xlink:href="#radial-gradient-2"/><radialGradient id="radial-gradient-99" cx="456.25" cy="-804.35" r="322.67" xlink:href="#radial-gradient-2"/><radialGradient id="radial-gradient-100" cx="456.24" cy="-804.35" r="322.67" xlink:href="#radial-gradient-2"/><radialGradient id="radial-gradient-101" cx="456.25" cy="-804.36" r="322.67" xlink:href="#radial-gradient-2"/><radialGradient id="radial-gradient-102" cx="456.25" cy="-804.35" r="322.68" xlink:href="#radial-gradient-2"/><radialGradient id="radial-gradient-103" cx="456.25" cy="-804.35" r="322.68" xlink:href="#radial-gradient-2"/><radialGradient id="radial-gradient-104" cx="456.25" cy="-804.35" r="322.67" xlink:href="#radial-gradient-2"/><radialGradient id="radial-gradient-105" cx="456.25" cy="-804.35" r="322.67" xlink:href="#radial-gradient-2"/><radialGradient id="radial-gradient-106" cx="456.25" cy="-804.35" r="322.68" xlink:href="#radial-gradient-2"/><radialGradient id="radial-gradient-107" cx="456.26" cy="-804.35" r="322.68" xlink:href="#radial-gradient-2"/><radialGradient id="radial-gradient-108" cx="456.25" cy="-804.35" r="322.67" xlink:href="#radial-gradient-2"/><radialGradient id="radial-gradient-109" cx="456.25" cy="-804.35" r="322.67" xlink:href="#radial-gradient-2"/><radialGradient id="radial-gradient-110" cx="456.25" cy="-804.35" r="322.68" xlink:href="#radial-gradient-2"/><radialGradient id="radial-gradient-111" cx="456.24" cy="-804.35" r="322.67" xlink:href="#radial-gradient-2"/><radialGradient id="radial-gradient-112" cx="456.25" cy="-804.35" r="322.67" xlink:href="#radial-gradient-2"/><radialGradient id="radial-gradient-113" cx="456.26" cy="-804.35" r="322.69" xlink:href="#radial-gradient-2"/><radialGradient id="radial-gradient-114" cx="456.24" cy="-804.36" r="322.66" xlink:href="#radial-gradient-2"/><radialGradient id="radial-gradient-115" cx="456.25" cy="-804.35" r="322.67" xlink:href="#radial-gradient-2"/><radialGradient id="radial-gradient-116" cx="456.23" cy="-804.37" r="322.64" xlink:href="#radial-gradient-2"/><radialGradient id="radial-gradient-117" cx="456.25" cy="-804.33" r="322.68" xlink:href="#radial-gradient-2"/><radialGradient id="radial-gradient-118" cx="456.24" cy="-804.36" r="322.66" xlink:href="#radial-gradient-2"/><radialGradient id="radial-gradient-119" cx="456.25" cy="-804.34" r="322.69" xlink:href="#radial-gradient-2"/><radialGradient id="radial-gradient-120" cx="456.25" cy="-804.34" r="322.68" xlink:href="#radial-gradient-2"/><radialGradient id="radial-gradient-121" cx="456.24" cy="-804.35" r="322.67" xlink:href="#radial-gradient-2"/><radialGradient id="radial-gradient-122" cx="456.24" cy="-804.35" r="322.67" xlink:href="#radial-gradient-2"/><radialGradient id="radial-gradient-123" cx="456.25" cy="-804.37" r="322.65" xlink:href="#radial-gradient-2"/><radialGradient id="radial-gradient-124" cx="456.25" cy="-804.35" r="322.68" xlink:href="#radial-gradient-2"/><radialGradient id="radial-gradient-125" cx="456.25" cy="-804.34" r="322.68" xlink:href="#radial-gradient-2"/><radialGradient id="radial-gradient-126" cx="456.25" cy="-804.36" r="322.67" xlink:href="#radial-gradient-2"/><radialGradient id="radial-gradient-127" cx="456.25" cy="-804.35" r="322.67" xlink:href="#radial-gradient-2"/><radialGradient id="radial-gradient-128" cx="456.25" cy="-804.36" r="322.67" xlink:href="#radial-gradient-2"/><radialGradient id="radial-gradient-129" cx="456.25" cy="-804.34" r="322.68" xlink:href="#radial-gradient-2"/><radialGradient id="radial-gradient-130" cx="456.25" cy="-804.35" r="322.67" xlink:href="#radial-gradient-2"/><radialGradient id="radial-gradient-131" cx="456.25" cy="-804.35" r="322.67" xlink:href="#radial-gradient-2"/><radialGradient id="radial-gradient-132" cx="456.25" cy="-804.35" r="322.67" xlink:href="#radial-gradient-2"/><radialGradient id="radial-gradient-133" cx="456.25" cy="-804.35" r="322.67" xlink:href="#radial-gradient-2"/><radialGradient id="radial-gradient-134" cx="456.25" cy="-804.35" r="322.67" xlink:href="#radial-gradient-2"/><radialGradient id="radial-gradient-135" cx="456.25" cy="-804.35" r="322.67" xlink:href="#radial-gradient-2"/><radialGradient id="radial-gradient-136" cx="456.25" cy="-804.35" r="322.67" xlink:href="#radial-gradient-2"/><radialGradient id="radial-gradient-137" cx="456.25" cy="-804.35" r="322.68" xlink:href="#radial-gradient-2"/><radialGradient id="radial-gradient-138" cx="456.25" cy="-804.35" r="322.67" xlink:href="#radial-gradient-2"/><radialGradient id="radial-gradient-139" cx="456.25" cy="-804.35" r="322.68" xlink:href="#radial-gradient-2"/><radialGradient id="radial-gradient-140" cx="456.25" cy="-804.35" r="322.67" xlink:href="#radial-gradient-2"/><radialGradient id="radial-gradient-141" cx="456.25" cy="-804.35" r="322.67" xlink:href="#radial-gradient-2"/><radialGradient id="radial-gradient-142" cx="456.24" cy="-804.36" r="322.66" xlink:href="#radial-gradient-2"/><radialGradient id="radial-gradient-143" cx="456.25" cy="-804.35" r="322.67" xlink:href="#radial-gradient-2"/><radialGradient id="radial-gradient-144" cx="456.25" cy="-804.35" r="322.67" xlink:href="#radial-gradient-2"/><radialGradient id="radial-gradient-145" cx="456.25" cy="-804.35" r="322.67" xlink:href="#radial-gradient-2"/><radialGradient id="radial-gradient-146" cx="456.25" cy="-804.35" r="322.67" xlink:href="#radial-gradient-2"/><radialGradient id="radial-gradient-147" cx="456.25" cy="-804.35" r="322.68" xlink:href="#radial-gradient-2"/><radialGradient id="radial-gradient-148" cx="456.25" cy="-804.36" r="322.67" xlink:href="#radial-gradient-2"/><radialGradient id="radial-gradient-149" cx="456.25" cy="-804.35" r="322.67" xlink:href="#radial-gradient-2"/><radialGradient id="radial-gradient-150" cx="456.25" cy="-804.35" r="322.67" xlink:href="#radial-gradient-2"/><radialGradient id="radial-gradient-151" cx="456.25" cy="-804.35" r="322.67" xlink:href="#radial-gradient-2"/><radialGradient id="radial-gradient-152" cx="456.25" cy="-804.35" r="322.67" xlink:href="#radial-gradient-2"/><radialGradient id="radial-gradient-153" cx="456.24" cy="-804.36" r="322.66" xlink:href="#radial-gradient-2"/><radialGradient id="radial-gradient-154" cx="456.25" cy="-804.34" r="322.68" xlink:href="#radial-gradient-2"/><radialGradient id="radial-gradient-155" cx="456.25" cy="-804.35" r="322.68" xlink:href="#radial-gradient-2"/><radialGradient id="radial-gradient-156" cx="456.24" cy="-804.35" r="322.67" xlink:href="#radial-gradient-2"/><radialGradient id="radial-gradient-157" cx="456.24" cy="-804.35" r="322.67" xlink:href="#radial-gradient-2"/><radialGradient id="radial-gradient-158" cx="456.25" cy="-804.35" r="322.67" xlink:href="#radial-gradient-2"/><radialGradient id="radial-gradient-159" cx="456.25" cy="-804.34" r="322.68" xlink:href="#radial-gradient-2"/><radialGradient id="radial-gradient-160" cx="456.25" cy="-804.35" r="322.67" xlink:href="#radial-gradient-2"/><radialGradient id="radial-gradient-161" cx="456.25" cy="-804.35" r="322.67" xlink:href="#radial-gradient-2"/><radialGradient id="radial-gradient-162" cx="456.24" cy="-804.37" r="322.65" xlink:href="#radial-gradient-2"/><radialGradient id="radial-gradient-163" cx="456.25" cy="-804.35" r="322.67" xlink:href="#radial-gradient-2"/><radialGradient id="radial-gradient-164" cx="456.25" cy="-804.36" r="322.67" xlink:href="#radial-gradient-2"/><radialGradient id="radial-gradient-165" cx="456.25" cy="-804.34" r="322.69" xlink:href="#radial-gradient-2"/><radialGradient id="radial-gradient-166" cx="456.25" cy="-804.36" r="322.67" xlink:href="#radial-gradient-2"/><radialGradient id="radial-gradient-167" cx="456.25" cy="-804.33" r="322.69" xlink:href="#radial-gradient-2"/><radialGradient id="radial-gradient-168" cx="456.27" cy="-804.34" r="322.7" xlink:href="#radial-gradient-2"/><radialGradient id="radial-gradient-169" cx="456.25" cy="-804.35" r="322.67" xlink:href="#radial-gradient-2"/><radialGradient id="radial-gradient-170" cx="456.25" cy="-804.34" r="322.69" xlink:href="#radial-gradient-2"/><radialGradient id="radial-gradient-171" cx="456.25" cy="-804.35" r="322.67" xlink:href="#radial-gradient-2"/><radialGradient id="radial-gradient-172" cx="456.25" cy="-804.36" r="322.67" xlink:href="#radial-gradient-2"/><radialGradient id="radial-gradient-173" cx="456.25" cy="-804.35" r="322.67" gradientTransform="translate(28.05 280.3) scale(0.2 0.15)" xlink:href="#radial-gradient-2"/><radialGradient id="radial-gradient-174" cx="456.24" cy="-804.31" r="322.71" xlink:href="#radial-gradient-2"/></defs><g class="cls-2"><g id="shadow"><rect class="cls-3" x="102.4" y="47.07" width="312.6" height="173.39"/><ellipse class="cls-4" cx="81.5" cy="95.78" rx="81.5" ry="36.72"/></g><g id="globe"><g class="cls-5"><polygon class="cls-6" points="122.14 29.63 122.14 29.95 122.27 29.9 122.18 29.57 121.97 29.27 121.84 29.3 121.95 29.34 122.14 29.63 122.14 29.63"/><polygon class="cls-7" points="121.13 29.39 120.98 29.29 121.07 29.48 121.27 29.68 121.54 29.8 121.9 29.81 122.04 29.84 122.06 29.72 121.73 29.69 121.59 29.71 121.36 29.55 121.13 29.39 121.13 29.39"/><polygon class="cls-8" points="119.13 28.95 119.33 29.01 119.14 28.71 119.34 28.88 119.47 28.86 119.61 28.95 119.6 28.84 119.76 29.01 119.8 28.97 120.11 29.3 120.11 29.51 120.2 29.57 120.16 29.6 120.25 29.85 120.7 30.2 120.77 30.33 120.89 30.38 120.85 30.3 120.98 30.37 120.85 30.14 120.68 30 120.75 29.95 120.58 29.84 120.6 29.62 120.45 29.39 120.71 29.38 120.7 29.22 120.5 29 120.35 28.88 120.44 28.79 120.24 28.48 120.25 28.44 119.73 27.95 119.53 27.73 119.53 27.72 119.09 28.27 118.99 28.28 119.02 28.35 118.76 28.68 118.76 28.68 119.05 28.86 119.13 28.95 119.13 28.95"/><polygon class="cls-9" points="121.03 30.22 120.95 30.12 120.91 30.11 121.02 30.32 121.03 30.22 121.03 30.22"/><polygon class="cls-10" points="122.47 38.54 122.28 38.49 122.23 38.55 121.82 38.56 121.58 38.49 121.53 38.38 121.81 38.32 121.82 38.18 121.68 37.92 121.73 37.89 121.93 37.97 122.16 37.83 122.28 37.01 122.39 37.09 122.34 37.21 122.46 37.31 122.48 37.54 122.38 37.59 122.38 37.86 122.5 37.83 122.4 38.06 122.58 38.31 122.88 38.35 122.88 38.48 122.69 38.58 122.47 38.6 122.47 38.54 122.47 38.54"/><polygon class="cls-11" points="121.45 38.2 121.5 38.29 121.32 38.31 121.34 38.41 120.97 38.38 120.81 38.34 120.65 38.29 120.69 38.4 120.63 38.4 120.47 38.27 120.11 38.21 119.88 38.39 119.65 38.38 119.49 38.29 119.32 38.01 119.13 37.85 119.11 37.8 119.21 37.76 119.27 37.82 119.26 37.74 119.45 37.71 119.83 37.76 120.01 37.89 119.99 37.84 120.46 37.99 120.83 37.89 120.92 37.94 121.29 37.9 121.33 37.95 121.26 38.02 121.29 38.17 121.45 38.2 121.45 38.2"/><polygon class="cls-12" points="122.53 33.86 122.64 33.91 122.79 34.23 122.81 34.37 122.97 34.71 122.95 34.75 122.81 34.68 122.85 34.63 122.63 34.27 122.53 33.86 122.53 33.86"/><polygon class="cls-13" points="122.39 30.35 122.45 30.51 122.42 30.54 122.5 30.67 122.59 30.65 122.48 30.22 122.39 30.35 122.39 30.35"/><polygon class="cls-14" points="123.05 31.61 123.22 31.77 123.29 31.94 123.2 31.91 123.05 31.73 123.05 31.61 123.05 31.61"/><polygon class="cls-15" points="123.03 31.15 123.29 31.55 123.22 31.63 122.99 31.23 123.03 31.15 123.03 31.15"/><polygon class="cls-16" points="122.6 30.88 122.7 31.04 122.67 31.08 122.82 31.17 122.88 31.33 122.78 31.31 122.61 31.05 122.6 30.88 122.6 30.88"/><polygon class="cls-17" points="123.4 32.14 123.32 32.22 123.54 32.38 123.4 32.14 123.4 32.14"/><polygon class="cls-18" points="123.45 31.67 123.56 31.76 123.45 32.06 123.38 31.81 123.45 31.67 123.45 31.67"/><polygon class="cls-19" points="125.87 36.17 125.87 36.17 125.72 35.92 125.96 36.02 126.06 36.27 125.87 36.17 125.87 36.17"/><polygon class="cls-20" points="126.23 36 126.66 36.22 126.46 36.25 126.16 36.07 126.23 36 126.23 36"/><polygon class="cls-21" points="115.4 34.71 115.4 34.71 115.39 34.51 115.42 34.46 115.48 34.54 115.46 34.22 115.58 34.1 115.59 34.24 115.66 34.21 115.95 34.58 116.28 34.68 116.1 34.9 115.86 35.02 115.78 34.85 115.6 34.94 115.4 34.71 115.4 34.71"/><polygon class="cls-22" points="115.97 27.65 116.17 27.62 115.92 27.46 115.97 27.65 115.97 27.65"/><polygon class="cls-23" points="119.21 33.35 119.21 33.33 119.21 33.2 119.43 33.02 119.46 32.88 119.4 32.8 119.38 32.56 119.2 32.27 119.28 32.28 119.36 32.14 119.24 31.96 119.16 32.01 119.2 31.79 119.2 31.67 119.13 31.54 119.21 31.49 119.01 31.23 119.03 31.15 118.94 31.11 118.81 30.91 118.93 30.7 118.98 30.56 118.91 30.42 119.09 30.19 118.99 29.95 118.78 29.87 118.8 29.75 118.92 29.61 118.83 29.57 118.89 29.18 118.93 29.14 118.8 29.12 118.49 29.27 118.59 29.34 118.43 29.33 118.3 29.44 118.19 29.69 117.73 29.88 117.51 29.82 117.35 29.58 117.43 29.51 117.25 29.45 116.91 29.07 116.85 28.92 116.72 28.75 116.98 28.59 117.15 28.58 117.17 28.63 117.27 28.65 117.22 28.56 117.4 28.57 117.36 28.46 117.28 28.5 116.73 28.14 116.72 28.04 116.6 28 116.52 27.84 116.44 27.83 116.36 27.7 116.2 27.69 116.34 27.79 116.37 27.93 116.05 27.73 115.96 27.7 115.66 27.79 115.52 27.74 115.35 27.9 115.38 28.05 115.26 27.92 115.07 27.77 114.87 27.8 114.99 27.71 114.88 27.49 114.54 27.3 114.26 27.41 114.11 27.34 114.1 27.37 114.17 27.46 113.78 27.4 113.62 27.3 113.65 27.44 113.56 27.64 113.53 27.4 113.49 27.35 113.51 27.29 113.23 27.33 113.19 27.49 113.02 27.47 112.71 27.56 112.46 27.51 112.2 27.39 111.67 27.31 111.57 27.21 111.28 27.2 111.14 27.22 110.91 27.18 110.75 27.25 110.76 27.15 110.52 27.36 110.32 27.46 110.39 27.82 110.36 27.86 110.28 27.71 110.21 27.82 110.17 27.62 110.11 27.66 110.1 27.78 110.18 28.03 110.14 28.18 110.2 28.45 110.1 28.69 110.12 29.02 109.89 29.38 109.81 29.3 109.8 29.47 109.92 29.57 109.94 29.66 110.28 29.84 110.9 29.86 111.6 30.2 111.7 30.27 111.96 30.19 112.47 30.28 112.77 30.44 113.27 30.56 113.67 30.77 113.77 30.79 113.93 31 114.27 31.25 114.36 31.85 114.26 31.82 114.41 32 114.43 31.93 114.63 31.89 114.86 31.93 115.13 31.82 115.04 32.02 114.85 32.05 114.75 32.18 114.64 32.12 114.56 32.16 114.78 32.26 114.99 32.14 115.01 32.31 114.8 32.39 114.99 32.47 115.07 32.62 114.94 32.86 114.99 33.08 115.14 33.28 115.39 33.44 115.56 33.66 115.86 33.72 116.12 34 116.12 34.09 116.3 34.08 116.62 34.11 116.98 34.31 117.12 34.33 117.19 34.24 117.42 34.09 117.93 33.94 117.96 33.89 118.27 33.9 118.23 33.86 118.39 33.91 118.71 33.77 118.75 33.7 119.14 33.51 119.21 33.35 119.21 33.35"/><polygon class="cls-24" points="114.83 26.36 114.66 26.35 114.4 26.33 114.34 26.38 114.38 26.41 114.28 26.41 114.54 26.51 114.78 26.49 115.18 26.59 115.45 26.62 114.88 26.37 114.83 26.36 114.83 26.36"/><polygon class="cls-25" points="117.39 20.54 117.29 20.52 116.89 20.62 116.81 20.7 116.88 20.98 117.2 20.88 117.36 20.75 117.5 20.71 117.51 20.66 117.56 20.64 117.39 20.54 117.39 20.54"/><polygon class="cls-26" points="104.38 18.64 104.22 18.48 104.09 18.48 104.19 18.51 104.28 18.59 104.14 18.54 104 18.75 103.96 18.71 103.93 19.07 104.03 19.16 104.41 19.18 104.53 19.05 104.39 18.78 104.38 18.64 104.38 18.64"/><polygon class="cls-27" points="115.2 3.76 114.87 3.71 115.51 4.05 115.95 4.05 116.88 4.37 117.18 4.26 116.42 3.68 116.07 3.64 115.41 3.47 115.47 3.6 115.33 3.63 115.01 3.53 115.15 3.66 114.75 3.59 115.2 3.76 115.2 3.76"/><polygon class="cls-28" points="114.95 3.98 115.43 4.08 115.19 3.93 114.48 3.67 114.82 3.94 114.95 3.98 114.95 3.98"/><polygon class="cls-29" points="116.9 4.44 116.17 4.2 116 4.24 115.92 4.12 115.78 4.19 115.22 4.1 115.59 4.26 115.72 4.46 116.41 4.74 116.63 4.89 117.4 5.18 117.44 5.03 117.24 4.64 116.84 4.58 116.9 4.44 116.9 4.44"/><polygon class="cls-30" points="117.48 5.56 117.93 5.63 118.61 5.92 119.46 6.13 119.12 5.86 119.02 5.7 118.44 5.59 118.54 5.39 117.98 5.44 117.7 5.33 117.23 5.46 117.48 5.56 117.48 5.56"/><polygon class="cls-31" points="120.24 6.61 120.17 6.51 119.78 6.41 120.1 6.64 120.24 6.61 120.24 6.61"/><polygon class="cls-32" points="130.46 13.28 131.33 13.67 131.45 13.83 131.89 14.06 132.59 14.24 132.18 13.84 131.74 13.56 131.43 13.21 131.07 13.24 130.68 12.81 130.47 12.81 130.57 12.67 130.07 12.49 129.75 12.59 130.04 12.99 130.46 13.28 130.46 13.28"/><polygon class="cls-33" points="133.19 14.89 133.32 15.05 133.78 15.37 134.1 15.53 134.27 15.54 133.8 15.14 133.54 15 133.52 14.9 133.05 14.63 132.96 14.45 132.74 14.47 133.02 14.76 133.19 14.89 133.19 14.89"/><polygon class="cls-34" points="130.45 13.78 130.26 13.64 130.21 13.74 130.58 13.93 130.81 14.13 131.29 14.48 131.43 14.48 131.25 14.13 130.81 13.84 130.45 13.78 130.45 13.78"/><polygon class="cls-35" points="141.95 23.66 141.98 23.71 142.02 23.75 142.45 24.08 142.56 24.14 142.43 23.79 142.06 23.46 142 23.4 141.97 23.4 141.92 23.37 141.86 23.32 141.46 23.29 141.86 23.55 141.95 23.66 141.95 23.66"/><polygon class="cls-36" points="126.86 19.39 126.7 19.47 126.57 19.67 126.37 19.76 126.35 19.97 126.04 20.15 125.97 20.3 126.26 20.3 126.42 20.54 126.53 20.52 126.47 20.35 126.42 20.06 126.77 19.91 127.1 20.09 127.19 20.32 127.17 19.84 127.27 19.49 127.21 19.48 127.47 19.24 127.49 18.94 127.59 18.84 127.3 18.89 127.14 18.77 127.07 18.9 126.8 19.12 126.86 19.39 126.86 19.39"/><path class="cls-37" d="M180.18,141.92l-.11-.42-.19-.19-.28-.36-.42,0v-.44l.1,0-.35-.54-.07,0v-.06l-.09-.08h.06l-.15-.24-.07.05,0-.18-.41-.65-.24-.17.13,0-.52-.58-.12-.2-.62-.58-.18-.13-.07,0-.06-.12-.24-.25-.51-.47h-.08l.08.21-.16.19-.29-.26-.19-.38.23,0-.28-.14-.41-.22L174,135l-.12-.16-.49-.34-.36-.17-.3.1.21-.24-.35-.32.25-.06-.11-.34-.31-.36-.61-.47-.18,0-.4-.28-.57-.32-.2-.39-.48-.26.27.05-.17-.2-.36-.24.45.17-.1-.16-.36-.31-.31-.21-.5-.06-.39-.23.35.15.41,0-.8-.65-.32,0,.14-.17-.53-.35-.35-.29-.31.11-.34-.1.11.28-.38-.31-.29-.08-.08.1-.12-.19-.44-.37-.48-.12-.48-.57-.83,0-.38-.36.1-.21-.09-.17-.1.06-.29-.42v-.26l-.27.26-.06.23-.1-.46-.25-.13-.15-.16.43.18-.18-.23.43.07-.55-.25-.09-.28-.28.07-.3-.14.12.28-.46-.28v-.12l-.23,0-.39-.2-.09-.17h-.2l-.32-.26.15-.06-1.06-.6-.63-.24-.22.32.07-.48-.34-.08-.3-.2-1.15-.24-.71-.29-.52-.05.45,0,.27.09.16,0,.33.13.43,0,.27.1.07,0-.13-.1.71.13.14.1.73.13.06,0-.11-.08h.12l-.14-.27-.33-.26-.18-.25-.41-.1-.21-.17-.5-.21-.06,0-.54-.22.47,0-.22-.15-.5-.14-.46-.24.51.14.12,0,.2.08-.12-.13-1-.43-.89-.09,0,.07.35.29-.41-.21-.73-.29.31.29,0,.34-.33-.28v-.27l-.4,0-.51-.15-.32-.12.13,0-.5-.15-.47-.19-.13,0,.43.15h-.23l-.49-.16-.15-.1-.11.07-.84-.27h-.45l-.28-.08,0,.1-.27,0-.39-.17-.09.23.16.39-.2-.19h-.2l.19-.14-.26,0-.55-.23-1.16-.25v.31l.41.23v.12l.46.32-.46.21.08.26-.32-.29.5-.21-.51-.22-.28-.28-.76-.29-.22.14-.41-.18-.35,0,0,.14.43.23.18,0,.1.2.25,0-.32,0-.17-.24-.79-.28.08-.15-.06-.44-.16.26-.5,0-.24.09.38.37-.35.15v.28l.66.13.7.31-.11.25.48.26-.49-.13-.18-.12.09-.2-.23-.18-.84-.15.12.33-.38.11-.54,0-.2.06-.91-.31-.08-.15.64.21.82-.12,0-.13h.26l-.22-.21.08-.39.22-.17-.31-.3.49-.18,0-.15-1.18-.4-.24.06L142,119l-.76.06.28.14-.31.37.48.11.08.19.27.08-.26.12-.15,0-.36-.25-.77-.32-.14.13.35.18-.18.15.25.06.07.08-.12,0,.06,0-.36,0-.05.06h-.69l-.24.11-.34,0-.21,0,0,.06h-.3l-.15-.09-.24.06,0,.12.12,0-.2.06-.15.2,0,.13.15,0-.18.08,0,.16-.14,0,0,.21-.12.06-.07.09-.21,0,0,.06.22.13-.05.11.14,0-.1.08-.11,0-.13,0,.12.13-.15,0-.07,0-.11,0-.08.07.1.1h-.36l0,0,.08,0,0,.12.4.08h.12l.13.05-.15,0,.21.09v0h-.15l-.08,0-.13,0,0,.08h-.06l-.1-.06-.11,0-.05-.06.1,0-.09-.07,0,0-.1,0-.12.1.24.19h.16l.11,0h.21l.13,0,.16,0-.16.09,0,.07-.19,0-.06,0-.1,0-.07.14.07.07-.12,0v.1l.12.07,0-.06.29,0v.09h-.09v0l.16,0,0,0,.2,0,0,0,.2,0,.08,0-.08,0-.06.08-.38,0-.08-.06-.14.07-.07,0-.27-.1,0-.07-.26-.07,0,.06h-.12l0-.08-.13,0-.05,0-.09-.07-.07.06-.24.05-.19-.14-.15-.06,0,.06v.07l-.13,0,0-.06-.07,0,0,0-.14,0-.06-.07-.32,0,0-.08h-.19l0,0-.07,0h-.11l.05-.05-.17,0,0,0-.08,0-.06.07-.22,0-.1,0-.07,0,0,0-.2,0-.09,0,.06.17h-.19l-.22-.19-.1,0v.07l-.17,0-.06.11.08,0,0,0h-.09l-.1.1.2.08,0,.07.09.06v-.05l.1,0h.13l.14.1.05.08.11.08-.06,0-.1,0-.07,0,.23.07h0l.16,0,.57,0,.52.15-.15.25-.42,0-.16.06.12.14-.38-.08.23.2.06.15.2.12.28.08-.16.11,0,.07.05.12.13-.14.29,0v.09l.22.18-.36,0-.24-.14-.13.18.24.09-.13.07.24.16-.08.23v.23l-.2-.08-.55,0-.45-.19-.07-.08-.27-.06-.09-.09,0-.08,0-.18.13.06.13-.21.24,0-.31-.16-.18-.21h0l-.08,0h-.11l0,0-.2,0,0-.06-.15-.1-.07,0-.28-.1,0-.06-.2-.09-.11,0-.08,0-.22,0,0-.08-.33-.12-.38-.06-.08,0-.38-.13-.05,0,.45.24.08.2-.11.06-.47.08L130,125h-.36l-.43-.12-.14,0-.06,0-.12-.11-.25,0-.1-.1-.09,0-.46-.06-.68.13-.74-.06.14.08-.19.1-.41,0-.1,0-.26,0-.21.09.16.24.15.08h-.28l.28.07-.08.12.23,0-.15.08.37,0-.23.06.39,0,.26.13.33-.13h.14l.56.22h.39l.24-.1.21.07.24,0,0,.21,0,.24-.32.29-.15.22-.18.11h-.42l-.26-.07,0,.21.25.31.33.19.18-.28h.09l0,.06h0v0l-.18.19.19,0,.55.6.07.17.3.14.18.29,0,.25.16.16.29.14.27.39.14.09.12.21.12.7.46,0,.2-.08.74,0,.21,0,.23-.08.9,0,.05-.11.26,0,.32,0,.3,0,.15-.13.28,0,.18-.12H135l.19-.23.58-.24-.26-.31-.48-.17-.21-.23.08-.15.05-.09-.05,0-.08,0-.3.13-.22,0-.21.09-.49-.08h-.15l-.09-.05,0-.06h-.1l.08,0-.1,0,.14-.08,0-.13-.09-.07-.15.07,0,.17-.18-.26h0l.08-.05v-.07l-.25-.21-.13,0-.1-.2,0-.2.07,0,.06,0,.51,0,.22.24.08.21.36.15.27.17.08.06.28.09.2,0,.08,0,.29,0,.14,0,.06.1,0,.18.52.17.47.09.32.11.59.13h.21l.15.09,0,0,.34.06H138l0,.12.12,0,.09.25.16.07h.06l.26.25.41,0-.14.08-.26,0-.13-.08,0,.08.27.29.16.11.45,0,.31-.14-.17.14.08.14-.15.14.09.14-.09,0v.05l.07,0v0l-.07,0,0,.22,0,.2.1.3.06,0h0l.08.08,0,.17,0,.13,0,0,0,0,0,.16.12.15.05.24.07.07-.06,0,0,.19.1.13.31.09.19-.08.23,0-.09-.07.18-.07.12,0,.07-.19,0,0,.22-.16.11-.13,0-.18.06-.15.11-.09.35,0,.31.05,0-.08.62-.06.24-.08.2,0v0l.09,0,.22,0,0-.08.12.07.2-.06,0-.13h.37l.05-.08.09.14.16.06.36.13.14,0V132l-.29-.25.35.22,0,.15.2.07,0,.12v.22l0,0,.2.26.17.09-.06,0,.09.1-.15-.05,0,.08.08,0,.06,0-.05.09.06.28-.18.13,0,.1.41.15h.39l.09-.12.17.24-.09.07-.05.49h.12l-.08.32h0l.08.07-.21.11-.1.13h.11l-.19,0-.15.22.17,0,0,.18.18.14.06.21h0l0,.25,0,.1-.06,0,.06.09.12.19h-.11l.12.15.19.22.16.12,0,.06.23.06,0-.24-.07-.1.16-.3-.19-.35,0,0L147,136h-.11l-.15-.17.05-.23,0-.18-.18-.06.07-.19.2-.12.2-.09.07-.2h.11l0,.06.07.16.33.14,0,.09.12.15h0l0,0,.1.14h.12l0,.11.13.11h0l.05.16-.06.17h.2l.21,0-.06-.14.17.15.27-.05.24,0,.37,0h.07l.17-.16.05-.18,0-.23.05,0-.1-.23-.13-.08-.23-.36v-.11l-.16-.22.11-.1.39-.06v-.08l.21.09,0,0,.19,0h0l.3.16.24.09-.12.05-.05.13.18,0v-.11l.13,0,.34.14.42.11.07,0v0l0-.1.07.11,0-.17.18.2.38.1.09.08.22.06,0,0,.08,0-.05-.07.21.06.39,0,.13.08v-.06l.12.06v-.08l.13.07,0-.06h.05l.09.07v-.07H154l-.1-.09.18.05.25-.05,0,0,.08,0,.35,0,.09,0-.11-.15.15.07,0-.09.13,0,0,.07.06-.08-.16-.06h.19l-.27-.16-.05-.09-.17-.06.43.08.12.1.07-.17-.29-.18-.2-.2.28.2.27.15-.21-.31.07-.06,0-.33-.27-.22.07-.05h.66l-.07-.08.42.14.13.12.13-.08-.33-.17-.2-.2-.37,0-.22-.15-.25-.37.46.1.88,0,.21.09-.12.19-.35.13.44,0,.23.07h.06l.09.06h.09l.09.07H157l.25.25-.18.09.13.11-.35-.07.26.16.12.14.17.06h0l0,.17-.23.23H157l0,.07-.09-.06v.06l0,.09-.1-.07,0,.1.43.07.23.12.06,0,.09.09h.18l.05-.1.14-.17-.1-.31,0-.13h0l-.12-.32.4.1h.17l.06,0,.17.05.11-.15.37,0,.22,0,.26,0,.27.32.27.11.45.09.33,0,.74.05.76-.08.36,0,.27-.21h.12l0-.17.42-.15.14.06-.08-.13.11-.07-.12-.16.24.1-.33-.52-.4-.14-.46-.14.25-.08-.22-.24-.48-.29,0-.05.74.21.31,0,.18.08.13-.08.71.18.16-.05.92.24.75.47.15.18.12,0,.24.24.25.11.18.17v-.08l.31.12.27.28.22.1.21.26-.38-.22,0,.1.35.17.13.15.72.42v-.09l-.23-.23.37,0,.36.12.13,0,.2.08.08-.07.29.11.53.34,0,.13.29.11-.35.26.89.26.26.2.19-.2.35.21.31.35-.33-.25-.15-.06-.24.19-.19,0-.61-.3-.09,0-.5-.18-.54-.12,0,.06-.3-.14-.06,0-.45-.28-.17.11-.3-.08-.35.17-.29.59.11.15-.12-.05L168,137l.1.06-.15.05.48.14h.18l.24-.18.38.21.09.12.06-.15.16,0,.27.09.4.24.46-.08.16.08,0-.35.23,0-.12-.17-.16-.06,0-.12h.47l.07.08.31-.09.29.31.14,0,.46.18-.22.07.15.07.23,0,.24.14.43.32.13.39.19-.05.51.26.06-.05.31.08.61.35.15.15.08,0,.6.36.05-.08,0,.16.16.15.23.32.23-.36,0-.31-.16-.28-.4-.25,0-.11.25.24-.06-.21.55.7-.1,0,.33.13.47-.05.28.07,0,.34.43.35.23.28v.3l.29.33.09.22H179l0,.16.38-.22.39.32.22.3.33.13-.22-.27ZM142.66,129l-.14,0V129l-.06,0h0l0,0,0-.1h.08v0l-.13-.07,0-.1,0,0,0,0h0l.18,0,.2,0,0,.05.08.07h.06l0,0-.12.11-.07,0,0,0-.06,0,0,.06Zm-.64-3,1.14.38.17,0,.22.08-.21.09-1.22-.36-.3,0-.13.17-.3-.24L142,126Zm10.57,2.22.27-.07.76.07.48-.22.26.05-.37.31-.31.07-.82-.12-.25.08-.64-.29Zm-15.9-3.31.2.08,0-.12.42.17-.28,0,.13.24-.25.09-.3-.1.19-.14,0-.14-.18,0-.05.2-.19-.05.07-.17.08,0,.16-.1Z" transform="translate(-37 -114.93)"/><polygon class="cls-38" points="115.96 22.04 116.03 22.16 116.11 22.1 116.19 22.2 116.04 22.2 116.01 22.28 116.33 22.41 116.48 22.65 116.55 22.51 116.66 22.77 116.85 22.88 116.78 22.87 116.82 22.95 116.91 22.73 116.7 22.56 116.58 22.45 116.47 22.43 116.49 22.48 116.39 22.43 116.37 22.14 116.6 22.07 116.69 22.11 116.88 22.02 116.83 21.88 117.01 21.72 116.85 21.71 116.57 21.53 116.49 21.52 116.32 21.64 116.19 21.86 116.12 21.86 116.03 21.76 115.96 22.04 115.96 22.04"/><polygon class="cls-39" points="115.98 22.41 115.98 22.59 116.12 22.6 116.2 22.47 115.91 22.29 115.98 22.41 115.98 22.41"/><polygon class="cls-40" points="116.8 23.47 116.86 23.52 117 23.35 117.09 23.43 117.14 23.12 116.89 22.98 116.97 23.28 116.8 23.16 116.8 23.47 116.8 23.47"/><polygon class="cls-41" points="116.02 22.99 116.27 23.04 116.46 22.99 116.2 22.77 116.02 22.99 116.02 22.99"/><polygon class="cls-42" points="116.32 23.1 116.23 23.17 116.08 23.15 116.22 23.37 116.44 23.32 116.5 23.24 116.28 23.3 116.44 23.14 116.32 23.1 116.32 23.1"/><polygon class="cls-43" points="115.09 22.65 115.42 22.68 115.46 22.51 115.3 22.62 115.21 22.6 114.71 22.64 114.51 22.69 114.97 22.71 115.09 22.65 115.09 22.65"/><polygon class="cls-44" points="116.23 23.61 116.23 23.46 115.84 23.41 115.66 23.5 116.06 23.57 116.1 23.67 116.15 23.61 116.22 23.63 116.17 23.91 116.24 24.01 116.38 24.13 116.45 24.11 116.44 24.21 116.55 24.16 116.55 24.04 116.69 24 116.72 24.22 116.94 24.13 116.94 23.85 117.04 23.85 117.05 23.76 116.9 23.57 116.83 23.71 116.5 23.61 116.4 23.65 116.23 23.61 116.23 23.61"/><polygon class="cls-45" points="126.21 20.93 126.03 20.65 125.89 20.35 125.72 20.48 125.41 20.65 125.12 20.51 124.86 20.49 124.75 20.74 125.04 20.61 125.42 20.84 125.73 21.23 126.09 21.18 126.39 21.35 126.68 21.44 126.45 21.14 126.21 20.93 126.21 20.93"/><polygon class="cls-46" points="125.04 21.15 125.15 21 125.06 20.94 124.72 20.9 124.58 20.86 124.57 20.96 124.44 20.96 124.51 21.04 124.45 21.1 124.15 21.24 123.74 21.2 123.47 20.96 123.26 20.89 123.17 20.98 122.86 20.98 122.73 21.03 122.33 20.77 122.05 20.65 121.98 20.57 121.35 20.5 121.22 20.43 121.14 20.5 121.46 20.72 121.62 20.67 121.66 20.73 122.2 20.91 122.51 21.09 122.47 21.38 122.85 21.29 122.99 21.28 123.32 21.6 123.53 21.59 123.49 21.7 123.98 21.86 124.19 21.72 124.44 21.65 124.55 21.47 124.73 21.55 124.77 21.48 125.06 21.44 125.04 21.15 125.04 21.15"/><polygon class="cls-47" points="121.81 21 122.25 21.21 122.22 21.08 121.91 20.92 121.76 20.8 121.39 20.79 121.6 21.05 121.81 21 121.81 21"/><polygon class="cls-48" points="121.18 20.88 121.17 20.63 121.06 20.46 120.75 20.41 120.7 20.56 120.95 20.66 120.61 20.82 120.7 20.92 120.81 20.85 120.79 20.98 120.96 21.02 121.18 20.88 121.18 20.88"/><polygon class="cls-49" points="113.01 24.46 113.25 24.23 113.33 24.18 113.28 24.14 113.47 24.15 113.74 24.17 113.77 24.12 113.78 24.01 113.92 23.95 114 23.98 114 23.91 114.27 24.05 114.24 23.98 114.05 23.75 114.17 23.75 114.11 23.57 114.03 23.5 114.11 23.49 114.01 23.41 114.2 23.39 114.36 23.37 114.56 23.46 114.5 23.34 114.7 23.44 114.79 23.43 114.52 23.15 114.35 23.11 114.38 22.89 114.26 22.84 114.15 22.89 113.88 22.95 113.74 22.92 113.75 22.99 113.66 23.01 113.63 23.02 113.59 22.96 113.59 22.96 113.53 22.94 113.31 22.89 113.3 22.89 113.24 22.92 112.89 22.98 112.49 22.86 112.42 22.86 112.28 23.07 111.92 22.84 111.88 22.75 111.88 22.75 111.55 22.86 111.52 22.94 111.59 23.04 111.5 23.1 111.67 23.34 111.58 23.4 111.62 23.56 111.57 23.63 111.89 23.78 111.99 23.77 111.95 23.91 112.31 23.95 112.34 24.03 112.45 24.06 112.43 24.11 112.58 24.12 112.58 24.19 112.68 24.2 112.62 24.34 112.96 24.38 113.01 24.46 113.01 24.46"/><polygon class="cls-50" points="116.53 25.39 116.78 25.52 116.64 25.33 116.84 25.36 116.78 25.25 116.63 25.25 116.78 25.1 116.5 25.16 116.42 25.43 116.54 25.63 116.53 25.39 116.53 25.39"/><polygon class="cls-51" points="110.24 23.45 110.28 23.33 110.35 23.28 110.33 23.23 110.44 23.19 110.39 23 110.19 22.9 110.06 22.95 110.17 22.65 110.11 22.36 109.75 22.23 109.93 22.21 109.55 21.75 109.49 21.72 109.48 21.8 109.36 21.62 109.28 21.58 109.26 21.45 108.98 21.18 108.87 21.14 108.96 21.1 108.81 20.88 108.5 20.77 108.2 20.59 108.19 20.74 108.41 21.02 108.51 21.07 108.64 21.28 108.64 21.4 108.87 21.59 108.84 21.61 108.85 21.87 108.97 21.95 109.14 22.41 109.12 22.48 109.36 22.91 109.58 23.16 109.65 23.21 109.82 23.47 110.13 23.58 110.24 23.45 110.24 23.45"/><polygon class="cls-52" points="114.78 24.69 114.59 24.72 114.47 24.66 114.41 24.48 114.56 24.35 114.92 24.48 114.96 24.53 115.3 24.68 115.42 24.79 115.66 24.88 115.97 24.82 115.56 24.75 115.27 24.6 114.95 24.35 114.81 24.26 114.67 24.31 114.62 24.24 114.52 24.25 114.31 24.42 114.14 24.46 114.08 24.57 113.86 24.61 113.81 24.68 113.95 24.93 113.73 25.11 113.73 25.15 113.78 25.18 113.9 25.24 114.09 25.09 114.19 24.84 114.38 24.86 114.31 25.02 114.45 25.19 114.39 25.24 114.75 25.42 114.77 25.17 114.67 24.92 114.59 24.84 114.6 24.81 114.68 24.87 114.91 24.9 115.06 24.88 115.2 24.96 115.29 24.91 114.78 24.69 114.78 24.69"/><polygon class="cls-53" points="110.59 23.22 110.77 23.15 110.63 23.06 110.55 22.88 110.29 22.89 110.49 22.98 110.59 23.22 110.59 23.22"/><polygon class="cls-54" points="116.66 26.11 116.27 25.89 116.12 25.96 116.65 26.2 116.83 26.41 116.85 26.27 116.66 26.11 116.66 26.11"/><polygon class="cls-55" points="119.25 27.49 118.84 27.06 118.63 27.07 118.42 26.97 118.08 27.01 117.97 26.95 117.85 26.66 117.97 26.54 117.98 26.4 117.63 26.11 117.27 26.01 117.13 26.06 117.47 26.44 117.81 26.59 117.44 26.52 117.23 26.41 117.4 26.66 117.33 26.74 117.49 26.79 117.7 26.71 117.63 26.86 117.86 27.12 118.05 27.24 118.22 27.43 118.29 27.47 118.33 27.5 118.47 27.69 118.47 27.94 118.56 28.02 118.45 28 118.56 28.12 118.41 28.07 118.47 28.16 118.34 28.24 118.69 28.36 118.62 28.39 118.75 28.67 118.76 28.68 118.76 28.68 119.02 28.35 118.99 28.28 119.09 28.27 119.53 27.72 119.53 27.73 119.53 27.72 119.25 27.49 119.25 27.49"/><polygon class="cls-56" points="111.9 24.73 111.81 24.65 111.82 24.52 111.47 24.33 111.46 24.27 111.24 24.28 111.15 24.21 110.82 24.07 110.76 23.93 110.45 23.73 110.18 23.62 110.04 23.7 109.9 23.67 110.2 23.87 110.14 23.9 110.51 24.12 110.96 24.3 111.21 24.52 111.7 24.78 111.86 24.82 112.16 25.06 112.22 24.89 111.9 24.73 111.9 24.73"/><polygon class="cls-57" points="118.01 28.07 118.3 28.2 118.39 28.13 118.27 28.04 118.01 28.07 118.01 28.07"/><polygon class="cls-58" points="113.96 25.89 113.68 25.68 113.52 25.73 113.81 25.91 114.17 26.05 114.38 26.03 114.13 25.98 113.96 25.89 113.96 25.89"/><polygon class="cls-59" points="113.34 25.54 113.04 25.47 112.88 25.32 112.77 25.44 113.37 25.64 113.34 25.54 113.34 25.54"/><polygon class="cls-60" points="113.25 25.71 113.52 26.02 113.64 26.02 113.53 25.86 113.25 25.71 113.25 25.71"/><polygon class="cls-61" points="112.58 25.21 112.59 25.25 112.51 25.26 112.62 25.38 112.79 25.28 112.71 25.23 112.58 25.21 112.58 25.21"/><polygon class="cls-62" points="112.29 25.02 112.29 25.08 112.4 25.2 112.54 25.14 112.41 25.09 112.29 25.02 112.29 25.02"/><polygon class="cls-63" points="108.12 19.05 107.92 19.27 107.97 19.37 108.12 19.14 108.18 19.14 108.21 19.04 108.12 19.05 108.12 19.05"/><polygon class="cls-64" points="113.91 20.01 113.51 19.83 113.19 19.83 113.12 19.97 113.35 20.14 113.68 20.15 113.91 20.01 113.91 20.01"/><polygon class="cls-65" points="118.19 19.88 118.15 19.78 118.04 19.78 118.19 19.88 118.19 19.88"/><polygon class="cls-66" points="96.05 13.6 96.22 13.49 96.09 13.44 96.05 13.6 96.05 13.6"/><path class="cls-67" d="M132.6,131.07l-.23.05-.82-.06-.31,0L131,131l-.27.08-.19,0-.27-.24-.23,0,.22-.19-.54-.42-.23-.06-.07-.13-.13,0-.15-.37-.11-.2-.34-.19v-.41l-.08-.19h0l-.42-.29,0-.17-.18-.11-.35-.63-.24-.19-.11-.32,0-.21-.35-.08-.25.06h-.1l-.29.06-.4-.11h-.06l-.56-.13-.2,0,0,0-.06-.06-.4-.06h-.14l-.06-.1-.45-.08-.38.06-.17.07v.24l-.26.14-.63-.18-.47-.06-.24-.22-.62-.11h-.31l-.27-.07-.38-.1-.11-.1.24-.1.13-.12-.23-.17.2-.2-.4,0-.39.08H119l-.37.1-.19-.05-.61,0-.12,0-.53.05-.31.14-.26,0-.31.14h-1.06l-.15-.1-.13,0-.33.39-.44.15-.46.44.1.24-.56.41-.44.11-.08.06h0l-.1.19-.28.14-.09.29-.25.18-.18.32-.08,0,0,.18,0,.11.29.08.11.44-.12.32-.07.17-.19.11.3.09v.05h.16l-.16.08v.1l.29,0-.28.12.24.08.29-.08-.13.13.16.05.42.15V131h.13V131l.13.19.24,0-.09,0,.31.05.76.28.48.08.47-.15.27,0-.08-.08.2.06h.3l.17-.06,0,.06h0l.31,0,1-.28h0l.19,0,.26,0h0l.49,0,.19.11.17,0,0,.18.2.11.35-.05.05-.07.06.06h.19l0-.07.11,0,.36.11.06.19-.06.12,0,0,0,.21h0l-.23.33-.09,0,.25.3h.16l-.08,0,.37.25.27.19h0l0,.14h.23l-.2.07.31.38v.07l-.12.06.22.28v.21l-.37.3-.1.31-.12.12v.41l.38.39.06.13.26.28,0,.07,0,.09v.19l.1.17V137l.12.3.12.13.19.11h0l.08.09.11.24.26.32v.19l-.11,0,.14.2,0,.09.43.15.13-.07h.34l.21-.07.58.07.06,0,.39,0,.37-.13.59-.31.39-.35.29-.14.15-.25v0l0-.24.12-.05.51-.08.13-.09,0-.26,0-.09-.06,0,0-.28-.11-.09.06-.1-.07-.08.53-.1.14-.15.36-.09h.28l.23-.08.32-.28v-.06l-.05,0,0-.29-.06,0,.08,0,0-.27.1-.11-.06,0-.19-.11-.07-.32.11-.07-.1,0,.1-.14-.19-.19.16-.23.2-.13,0-.09H129v-.09l.23,0v-.06h.13l.08-.06.14-.1.77-.32.52-.12.87-.42.8-.59.06-.15h.16v-.26l-.14-.05Zm-5.4,1.67-.22.16.17,0L127,133l-.28-.06-.15.08-.06-.15.1-.13,0-.07,0,0,.15-.12h.55l0,0,0,.05.2.07-.23.05,0,0Zm-1.26,1-.14-.08-.11-.17.06-.09-.07-.1,0-.27h.09l.06.19.08.23-.08.11.11,0,.14.11v.13l.16.15-.06.08L126,134l0-.06-.11-.17Zm1.34,1.45-.12-.09h-.07l0-.1L127,135l0-.14-.09-.09.12-.09v-.26l-.08-.07,0-.07h0l.2.11,0,.19.09.1-.09.1V135l.07.06h0l0,0,0,.11Z" transform="translate(-37 -114.93)"/><polygon class="cls-68" points="95.6 22.18 95.54 22.2 95.56 22.25 95.68 22.29 95.67 22.22 95.6 22.18 95.6 22.18"/><polygon class="cls-69" points="96.26 22.16 96.17 22.16 96.12 22.2 96.22 22.22 96.26 22.2 96.26 22.16 96.26 22.16"/><polygon class="cls-70" points="94.44 20.84 94.42 20.51 94.27 20.36 94.26 20.31 94.09 20.52 93.94 20.58 93.85 20.55 93.87 20.64 93.82 20.62 93.74 20.67 93.81 20.74 93.51 20.78 93.36 20.83 93.35 20.9 93.28 20.84 93.14 20.83 93.11 20.88 93.02 20.84 92.79 20.86 92.6 21.09 92.64 21.37 92.69 21.45 92.66 21.5 92.68 21.54 92.45 21.76 92.29 21.86 92.28 22.04 92.37 22.2 92.32 22.34 92.39 22.46 92.67 22.63 93.21 22.59 93.44 22.31 93.52 22.15 94.09 21.41 94.12 21.25 94.25 21.2 94.24 20.95 94.48 20.95 94.44 20.84 94.44 20.84"/><polygon class="cls-71" points="82.61 16.74 82.73 16.77 82.8 16.66 82.73 16.66 82.61 16.74 82.61 16.74"/><polygon class="cls-72" points="77.34 6.13 77.46 6.19 77.76 6.11 77.32 6.34 77.44 6.38 77.63 6.24 77.56 6.43 77.68 6.42 77.68 6.27 77.81 6.32 77.85 6.25 77.96 6.37 77.77 6.57 77.91 6.51 78.03 6.57 78.06 6.5 78.25 6.52 78.42 6.43 78.35 6.61 78.5 6.67 78.65 6.64 78.52 6.84 78.65 6.89 78.25 6.91 78.07 6.88 78 6.92 78.14 6.97 77.96 7.05 78.18 7.04 78.22 7.14 77.89 7.28 78.5 7.38 78.8 7.28 78.59 7.42 78.18 7.45 77.74 7.74 78.15 7.61 78.4 7.64 78.44 7.57 78.8 7.59 79.13 7.46 79.72 7.52 80.14 7.32 79.77 7.3 80.08 7.19 80.28 6.97 80.07 6.9 79.8 6.92 79.61 6.95 79.77 6.84 79.6 6.79 79.64 6.75 79.42 6.55 79.17 6.54 78.99 6.31 78.72 6.21 78.26 6.24 78.66 6.08 78.89 5.81 78.38 5.82 78.06 5.89 78.45 5.58 77.93 5.66 77.88 5.63 77.83 5.66 77.74 5.62 77.52 5.92 77.62 6.01 77.34 6.13 77.34 6.13"/><polygon class="cls-73" points="77.35 5.71 77.29 5.68 77.03 5.77 77.08 5.87 77.35 5.71 77.35 5.71"/><polygon class="cls-74" points="77.18 5.95 77.29 5.95 77.46 6.01 77.49 5.99 77.38 5.87 77.31 5.86 77.18 5.95 77.18 5.95"/><polygon class="cls-75" points="105.6 2.25 105.03 2.11 104.61 2.17 103.25 2 102.72 1.86 102.41 1.9 101.72 1.82 101.79 1.93 101.49 1.84 101.37 1.94 101 1.94 100.67 1.85 100.92 2.02 100.6 1.99 100.94 2.13 100.56 2.24 99.69 2.19 99.89 2.3 100.33 2.34 99.74 2.38 99.7 2.38 99.29 2.65 98.79 2.67 98.69 2.76 99.4 2.96 99.42 3.01 99.6 3.03 99.42 3.1 99.7 3.17 99.41 3.17 99.39 3.23 99.85 3.37 100.11 3.38 100.51 3.53 100.51 3.46 100.59 3.49 100.92 3.54 100.44 3.28 100.13 2.96 100.14 2.77 100.28 2.67 100.59 2.69 100.37 2.62 100.44 2.6 100.74 2.61 100.46 2.52 100.33 2.48 100.51 2.47 100.8 2.59 100.92 2.58 100.84 2.45 101.15 2.5 100.97 2.39 101.3 2.46 101.15 2.32 101.43 2.44 101.47 2.24 101.84 2.24 102.06 2.35 102.31 2.33 102.17 2.22 102.71 2.2 103.59 2.28 103.6 2.21 103.72 2.29 104.21 2.35 104.39 2.34 105.46 2.46 105.68 2.39 105.6 2.25 105.6 2.25"/><polygon class="cls-76" points="98.08 3.54 97.49 3.39 97.26 3.48 97.64 3.61 98.08 3.54 98.08 3.54"/><path class="cls-77" d="M140.75,120l-.25-.06.18-.15-.35-.18.14-.13-.51-.21-1.1-.26-.49-.38-.2.09.61.32.22.26-.44,0-.08.08-.22-.24-.51,0-.12,0-.48-.12h-.25l-.22.12-.52-.16.29,0,.21-.11-.51,0-1.22,0-.53-.07.17.15-.47-.06L134,119l-.58-.08-.37-.19.19-.09.5,0-.23-.22-1-.19.26.18-.19.26.27.13-.24.11.06.17-.3-.21-.39-.08-.23.08-.68.08.19.34-.35,0-.28-.08-.24,0,.1-.08L130,119l0,.21.36.09-.19.13-.45-.11-.06-.1-.18-.06-.06,0-.24-.09.12-.33-.86-.46.52.15.13-.07.06.13,1,.18.29.08.47,0,.76-.12.07-.1-.11-.17-.94-.29-.64-.26-1-.19-.3.12.12-.17h-.55l.33,0,.09,0-.42-.1-.06.08-.32-.07-.49-.09.55-.06-.34-.18-.49-.12-.21.11L127,117l-.3-.07-.35.19,0-.17-.57.3,0-.16.33-.11-.21,0-.24.11-.47.07-.08.15-.13-.1-.36-.09-.26,0,.29.07v.11l-.25-.09-.34-.11,0,.14-.18.13,0-.17-.23.17,0-.12-.22,0,.07.11-.28-.13.1.16-.23-.09-.07.09-.35,0,.26.1h-.36l0,.13-.1-.2-.19.12,0-.14-.14,0-.15.26-.54,0-.21.1.84-.07.25,0,0,.08-.07.07-.06-.07-.2.12-.07-.09-.15.1h.17l0,.09h-.39l-.3.06.16,0-.29,0,.11.1-.21.13-.16,0,0,.18-.42.1.29,0-.3.06.07.1-.23-.07-.17,0-.3.17.57,0-.33.09-.23,0-.12.06-.19,0,0,.09h-.18l.1.12-.22,0,.06.12-.22-.14-.29,0-.19.25-.46,0,0,.08.2,0,.4-.06-.42.14-.2,0,.05.1h.39l.21-.06.23,0-.32,0-.42.06-.14,0v.07l.18,0,.06.09-.26,0,.11.11.33.05.32-.12-.28.19-.28,0,0,.12-.16-.08.1.27.48.08-.06.08.47-.06.11,0,.38-.19.14,0,0-.11.25.08.11-.21.31.23v0l.08.29.23.2.19.07,0,.1-.13,0,.22.16-.09.07h.49l.18-.2.4,0,.23-.29.09,0-.1-.11h.12v-.08l-.13,0,.19,0-.23-.08.38,0,.11-.1.08.07.19-.06-.55-.07.26,0,0-.09.07.11.42-.05-.39-.25-.29,0,0-.26h.17l-.06-.25.35-.08.44-.21.45,0,.35-.18-.21-.12.22-.08-.12-.06.34-.05-.15,0,.22,0,.65,0h0l.42.11,0,.17-.34,0-.35.21-.31.1-.08,0-.07.07-.08,0,0,.11-.38.1.2.37-.12.26.34.12.18,0,0,.08.15,0-.14.11.61-.06h.18l.23-.06.08,0,.25-.1,0,.06.42,0h0l.58.21h-.52l0,.08-.44,0-.4-.07-.81.07.38.25,0,.09-.06.17-.42,0-.21-.14-.32,0L124,121l0,.07,0,.21v.08l-.45,0,.11.06-.23,0h-.36l-.07-.13-.66.08-.14.06-.5.05-.17.08h0l-.1,0,0,0-.27,0,.12-.07-.13,0-.1.07H121l-.15.09-.43,0-.33-.2-.18,0,.2-.22.11-.13.13,0,.09-.07h-.28l-.08-.14.21,0v-.13l-.61.16.23.08-.47,0v.26l.2.08,0,.08.07.18.19.11-.3,0-.08.13-.18-.1-.25,0v.12h0l-.17-.06-.34.06-.1.07v.06l0,.08-.18,0-.05-.1.09-.1-.17,0-.16.23-.22.11.17,0,0,0-.27,0,0,0-.28.08-.27.08,0,.17-.55.1.16.07-.17,0-.44-.06H116l.22.24-.46,0-.19-.07L115,123l.16.15.42,0v.07l.14,0,.12,0,0,0H116l-.08,0v.07l.36.09,0,.36-.23.3-.42,0-.2,0-.3,0-.47,0-.4.07-.29,0-.43.18,0,0,.2.22.09.26-.18.3-.07,0v.13l.19,0,0,.26.49,0,.14,0,.22.09.11.13h.23l.3-.14.67-.08.09,0,.21-.19h.24v-.11l.28-.15-.16-.08,0-.12.36-.28.36-.06.38-.15,0-.12h0l-.1-.07.06-.11.27-.1.73.11.45-.16.42-.16.46.09.13.24.22.08.64.3h.19l.15.09.23,0,.1.08.2.07.18.23-.2.19h.23l.1-.17.2,0v-.08l-.21-.06,0-.08.16-.09.43.16,0-.06-.16-.13-.28-.09-.4-.09.06-.11-.48,0-.24-.14-.13-.19-.42-.15,0-.14.06,0-.08-.09.35-.08.15,0h0l0,.08.11.08.08-.12.12,0,.19.25.27.16.31,0,.18.05.15,0h-.35l.48.11h.14l.23.14h0l0,.32.17.13.43.33.42,0,.27.09-.35,0-.36.06.34.18,0,.13.15-.08.15.08-.15-.23.46-.11-.34-.13-.17,0,0-.08.26,0-.27-.17v-.1l.14,0,.29.14,0-.16h.46l.3.08.06.09.43-.11.5,0-.27-.2-.19-.13.16-.15.22-.06,0,0,.12-.25.23,0,.06-.09-.08,0,.46-.24.23,0,.24,0-.13.09.48.06.07,0,.06,0,.05,0-.45.08.36.25.5,0,.16-.06.24,0-.35-.13-.1-.15.36-.06.32,0,.1,0h.42l.39,0-.29.07-.29,0,.26.17-.3.13-.4,0,.43.16.1.07.18.05.41.21.05,0,.38.13.08,0,.38.06.33.12,0,.08.18,0h0l.08,0,.11,0,.2.09,0,.06.35.13.15.1,0,.06.2,0,0,0H133l.08,0h0l0-.05-.27-.27,0-.25-.3-.12.26-.07.23-.17.26.08.21-.12-.23-.07.07,0,.1,0,.06,0-.11-.08-.05-.08-.14-.1H133l-.1,0v.05l-.09-.06,0-.07-.2-.08.1-.1h.09l0,0-.08,0,.06-.11.17,0v-.07l.1,0,.22.19h.19l-.06-.17.09,0,.2,0,0,0,.07,0,.1,0,.22,0,.06-.07.08,0,0,0,.17,0-.05.05h.11l.07,0,0,0h.19l0,.08.32,0,.06.07.14,0,0,0,.07,0,0,.06.13,0v-.07l0-.06.15.06.19.14.24-.05.07-.06.09.07.05,0,.13,0,0,.08h.12l0-.06.26.07,0,.07.27.1.07,0,.14-.07.08.06.38,0,.06-.08.08,0-.08,0-.2,0,0,0-.2,0,0,0-.16,0v0h.09v-.09l-.29,0,0,.06-.12-.07v-.1l.12,0-.07-.07.07-.14.1,0,.06,0,.19,0,0-.07.16-.09-.16,0-.13,0h-.21l-.11,0h-.16l-.24-.19.12-.1.1,0,0,0,.09.07-.1,0,.05.06.11,0,.1.06h.06l0-.08.13,0,.08,0h.15v0l-.21-.09.15,0-.13-.05h-.12l-.4-.08,0-.12-.08,0,0,0h.36l-.1-.1.08-.07.11,0,.07,0,.15,0-.12-.13.13,0,.11,0,.1-.08-.14,0,.05-.11-.22-.13,0-.06.21,0,.07-.09.12-.06,0-.21.14,0,0-.16.18-.08-.15,0,0-.13.15-.2.2-.06-.12,0,0-.12.24-.06.15.09h.3l0-.06.21,0,.34,0,.24-.11h.69l.05-.06.36,0-.06,0,.12,0-.07-.08Zm-19.47.47-.07,0-.25.06.16-.17.16.06v-.1l.28,0v.12l-.27.1Zm.33.19v-.11l.29-.16v.07l-.29.2Zm4.88.09-.08,0-.23-.14,0-.14.31,0v.12l-.09,0,.2.12-.14,0Zm1.78-.45-.1.11-.27-.08-.06.09-.17,0-.25-.32-.13-.06.28-.13.29,0,0,.11.31,0,.2.21-.15,0Zm1.17,0-.18,0,0-.12-.38-.15.17-.14.23,0-.19-.22.38.13,0,.16.21.18-.23.16Z" transform="translate(-37 -114.93)"/><polygon class="cls-78" points="85.28 0.55 86.16 0.55 85.34 0.61 85.79 0.67 86.6 0.71 86.57 0.77 87.12 0.87 88.23 0.7 87.47 0.57 87.13 0.35 86.72 0.45 86.58 0.25 86.35 0.49 85.35 0.21 85.3 0.38 84.6 0.36 84.86 0.51 85.28 0.55 85.28 0.55"/><polygon class="cls-79" points="93.36 1.71 94.25 1.71 93.42 1.78 93.88 1.85 94.69 1.89 94.66 1.97 95.21 2.08 96.31 1.88 95.55 1.73 95.22 1.48 94.8 1.59 94.66 1.36 94.44 1.65 93.44 1.32 93.39 1.52 92.68 1.49 92.95 1.67 93.36 1.71 93.36 1.71"/><polygon class="cls-80" points="82.39 1.15 82.31 1.27 82.99 1.21 83.22 1.11 83.26 1.19 83.7 1.1 84 1.2 83.39 1.22 83.09 1.3 82.54 1.31 82.64 1.41 83.31 1.41 82.75 1.5 82.88 1.63 83.15 1.69 83.59 1.61 83.33 1.75 83.64 1.75 83.8 1.86 84.16 1.54 84.38 1.54 84.43 1.36 84.7 1.34 84.65 1.21 84.95 1.16 85.49 1.17 85.37 1.27 85.85 1.25 85.62 1.12 85.02 1.02 85 0.97 84.64 0.95 84.42 0.78 84.14 0.87 84.33 0.74 83.62 0.6 83.63 0.95 83.22 0.76 82.94 0.69 82.73 0.88 82.51 0.76 82.1 0.76 82.64 0.66 82.01 0.6 82.05 0.73 81.8 0.67 81.4 0.78 81.89 1.1 82.39 1.14 82.39 1.15"/><polygon class="cls-81" points="87.37 1.31 86.86 1.28 86.64 1.22 86.53 1.02 85.81 1.01 86.06 1.24 85.85 1.34 86.54 1.36 86.45 1.48 86.89 1.43 87.37 1.31 87.37 1.31"/><polygon class="cls-82" points="87.63 2.06 87.89 2.1 88.02 1.99 87.63 2.06 87.63 2.06"/><polygon class="cls-83" points="88.12 2.08 88.01 2.09 87.93 2.15 88.02 2.18 88.12 2.08 88.12 2.08"/><polygon class="cls-84" points="86.8 2.21 86.81 2.16 86.72 2.15 86.8 2.21 86.8 2.21"/><polygon class="cls-85" points="86.35 2.23 86.49 2.28 86.61 2.27 86.72 2.23 86.48 2.21 86.35 2.23 86.35 2.23"/><polygon class="cls-86" points="84.75 2.65 85.04 2.66 84.83 2.56 84.75 2.65 84.75 2.65"/><polygon class="cls-87" points="82.76 3.99 82.67 3.96 82.44 4.05 82.62 4.04 82.76 3.99 82.76 3.99"/><polygon class="cls-88" points="81.82 4.33 81.57 4.43 81.72 4.47 81.82 4.33 81.82 4.33"/><polygon class="cls-89" points="86.02 2.41 86.11 2.3 85.68 2.39 86.02 2.41 86.02 2.41"/><polygon class="cls-90" points="84.55 10.67 84.66 10.63 84.42 10.58 84.55 10.67 84.55 10.67"/><polygon class="cls-91" points="82.68 9.62 82.56 9.58 82.67 9.82 82.59 9.99 82.76 10.02 83.02 9.93 83.08 9.67 82.88 9.51 82.68 9.62 82.68 9.62"/><polygon class="cls-92" points="84.25 10.15 83.94 10.23 84.39 10.37 84.83 10.47 84.83 10.3 85.01 10.15 84.39 10.2 84.25 10.15 84.25 10.15"/><polygon class="cls-93" points="76.66 7.46 76.97 7.31 77.4 7.26 77.51 7.05 77.4 6.78 77.7 6.64 77.37 6.47 77.13 6.54 77.06 6.48 76.96 6.57 76.88 6.5 76.53 6.67 76.74 6.7 76.6 6.81 76.09 6.83 76.24 6.91 76.07 7.02 76.48 7.05 76.15 7.26 76.57 7.2 76.23 7.33 75.97 7.37 76.2 7.41 76.12 7.46 76.28 7.44 76.24 7.53 76.66 7.46 76.66 7.46"/><polygon class="cls-94" points="74.27 4.1 74.4 4.03 74.03 3.8 73.73 3.9 73.43 3.82 73.08 3.95 72.94 4.06 72.66 4.02 72.77 4.16 72.57 4.06 72.24 4.1 72.25 4.19 71.89 4.14 71.96 4.25 71.89 4.32 71.72 4.31 71.69 4.43 71.56 4.2 70.88 4.17 70.47 4.51 70.83 4.48 71.02 4.39 71.27 4.44 71.45 4.38 71.44 4.48 70.63 4.67 71.05 4.69 71.27 4.58 71.56 4.6 71.48 4.66 71.59 4.7 71.16 4.83 71.17 4.9 71.65 4.83 72.63 4.84 73.25 4.61 73.75 4.52 73.86 4.34 74.11 4.37 74.1 4.25 74.27 4.24 74.2 4.17 74.42 4.14 74.27 4.1 74.27 4.1"/><polygon class="cls-95" points="88.36 10.15 88.5 10.2 88.58 10.16 88.49 10.07 88.36 10.15 88.36 10.15"/><polygon class="cls-96" points="82.91 9.08 82.89 9.09 82.88 9.14 82.71 9.16 82.69 9.22 82.76 9.29 82.74 9.36 82.79 9.42 82.88 9.46 82.94 9.37 82.91 9.29 82.96 9.13 82.91 9.08 82.91 9.08"/><polygon class="cls-97" points="83.4 6.43 83.4 6.26 83.12 6.26 83.4 6.43 83.4 6.43"/><polygon class="cls-98" points="82.42 6.28 82.45 6.44 82.58 6.37 82.42 6.28 82.42 6.28"/><polygon class="cls-99" points="83.9 6.1 83.78 6.19 83.51 6.21 83.81 6.39 84 6.19 83.9 6.1 83.9 6.1"/><polygon class="cls-100" points="90.73 11.01 90.67 11.07 90.47 11.07 90.71 11.2 91.16 11.1 91.25 11.02 91 11.05 90.73 11.01 90.73 11.01"/><polygon class="cls-101" points="74.64 30.01 74.58 30.05 74.9 30.09 75.08 30.16 74.77 30 74.64 30.01 74.64 30.01"/><polygon class="cls-102" points="68.36 30.96 68.51 30.98 68.65 30.86 68.74 30.68 68.36 30.96 68.36 30.96"/><polygon class="cls-103" points="69.07 30.66 68.98 30.6 68.83 30.61 68.75 30.88 68.88 30.91 68.86 30.83 68.93 30.86 69.2 30.64 69.09 30.61 69.07 30.66 69.07 30.66"/><polygon class="cls-104" points="64.47 31.34 64.52 31.25 64.33 31.22 64.47 31.34 64.47 31.34"/><polygon class="cls-105" points="64.7 31.52 64.68 31.4 64.58 31.38 64.54 31.43 64.7 31.52 64.7 31.52"/><polygon class="cls-106" points="64.75 31.67 64.68 31.7 64.77 31.75 64.85 31.75 64.82 31.71 64.75 31.67 64.75 31.67"/><polygon class="cls-107" points="65.98 32.24 66.1 32.23 66.07 32.18 66.06 32.17 65.94 32.18 65.85 32.26 65.96 32.31 66.1 32.31 65.98 32.24 65.98 32.24"/><polygon class="cls-108" points="64.05 29.97 63.94 30.09 63.99 30.24 64.1 30.1 64.05 29.97 64.05 29.97"/><polygon class="cls-109" points="66.73 32.38 66.69 32.49 67.2 32.42 67.02 32.27 66.73 32.38 66.73 32.38"/><polygon class="cls-110" points="63.89 30.62 64.19 30.52 64.18 30.28 64.05 30.36 63.89 30.62 63.89 30.62"/><polygon class="cls-111" points="65.9 20.48 65.8 20.58 65.94 20.53 65.9 20.48 65.9 20.48"/><polygon class="cls-112" points="65.81 20.61 65.77 20.83 65.91 20.88 66.38 20.73 66.35 20.68 66.44 20.66 66.5 20.51 66.11 20.57 65.89 20.58 65.81 20.61 65.81 20.61"/><polygon class="cls-113" points="71.65 20.3 71.28 19.99 70.71 20.04 70.38 19.96 70.21 19.9 69.66 19.84 69.29 19.95 69.1 19.91 68.96 19.98 68.57 19.97 68.39 20.09 68.36 20.03 68.28 20.06 68.28 20.13 68.14 20.23 68.18 19.99 68.13 19.95 67.74 19.96 67.67 19.91 67.56 19.96 67.52 19.92 67.39 19.97 67.39 19.9 66.94 20.01 66.87 20.15 66.92 20.21 66.77 20.27 66.61 20.48 66.62 20.3 66.21 20.4 66.09 20.28 65.83 20.44 66.04 20.21 66.03 20.05 66.22 19.81 65.86 19.72 65.69 19.55 65.6 19.42 65.42 19.37 65.4 19.44 65.4 19.44 64.88 19.29 64.5 19.41 64.49 19.41 63.91 19.45 63.92 19.5 63.62 19.53 63.51 19.65 63.44 19.53 63.12 19.5 62.97 19.59 62.94 19.43 62.35 19.36 62.35 19.36 61.83 19.5 61.99 19.28 61.5 19.37 61.33 19.28 61.23 19.34 61.23 19.28 61.55 19.14 60.86 19.34 60.79 19.39 61 19.37 60.59 19.58 60.17 19.59 59.57 19.81 59.42 19.71 59.01 19.79 58.52 20.05 58.76 20.24 58.79 20.32 58.65 20.42 58.41 20.34 58.48 20.13 58.27 20.02 58.44 19.9 58.44 19.9 58.14 20 57.88 20.21 57.69 20.27 57.71 20.42 57.52 20.43 57.6 20.34 57.41 20.41 57.31 20.65 57.36 20.79 57.11 21.01 57.2 21.13 56.85 21.13 56.85 21.16 57.02 21.21 56.96 21.26 57.02 21.28 56.99 21.33 56.9 21.34 56.93 21.42 57.32 21.56 57.22 21.67 57.43 21.91 57.56 21.88 57.49 22.19 57.26 22.3 57.33 22.4 57.19 22.46 57.26 22.54 57 22.75 57.09 22.88 57.01 23 57.11 23.02 56.97 23.16 57.12 23.37 57.42 23.19 57.41 23.48 57.41 23.49 57.24 23.75 57.37 23.89 57.54 23.89 57.47 24.02 57.91 24.02 58.47 24.19 59.02 24.55 59.73 24.71 59.82 24.88 60.27 24.98 61.23 24.94 61.96 25.03 61.96 25.03 62.4 25.55 62.5 25.84 62.4 25.91 62.44 25.99 62.58 26.02 62.73 26.3 62.85 27.06 63.02 27.2 62.99 27.38 63.31 27.75 63.28 27.86 63.4 28.3 63.35 28.43 63.4 28.61 63.31 28.67 63.45 28.76 63.29 28.86 63.65 29.18 63.7 29.64 63.91 29.81 64.01 29.62 64.16 29.62 64.18 29.84 64.28 29.94 64.23 30.05 64.36 30.1 64.28 30.21 64.51 30.27 64.52 30.53 64.39 30.57 64.44 30.65 64.52 30.62 64.49 30.76 64.28 30.64 64.01 30.95 64.33 30.88 64.52 30.98 64.82 31.02 64.43 31.11 64.78 31.29 64.83 31.34 64.8 31.41 64.9 31.41 64.84 31.46 64.9 31.47 64.83 31.54 64.97 31.57 64.75 31.62 65.13 31.82 65.17 31.88 65.28 31.86 65.35 31.93 65.54 31.8 65.49 32.17 65.92 31.92 65.74 32.17 65.99 32.11 66.02 31.91 66.34 31.75 66.36 31.66 66.62 31.61 66.53 31.55 66.37 31.46 66.23 31.33 66.3 31.11 66.14 31.01 66.43 30.97 66.37 30.77 66.67 30.43 66.63 30.26 66.33 30.27 65.98 30.12 66.05 29.91 66.36 29.75 66.27 29.43 66.45 29.21 66.23 29.19 66.47 29.02 66.15 29.02 66.04 28.89 66.05 28.81 66.46 28.75 66.7 28.58 66.61 28.27 66.45 28.18 66.7 28.16 67.15 27.98 67.66 27.68 67.78 27.36 67.49 27.23 67.47 27.09 67.04 27.03 66.86 26.92 66.89 26.59 66.89 26.59 67 26.88 67.21 26.97 67.42 26.92 68.05 26.86 68.29 26.67 68.4 26.48 68.5 26.32 68.48 25.93 68.63 25.82 68.57 25.6 68.78 25.63 68.72 25.89 68.55 25.99 68.56 26.08 68.82 25.85 68.97 25.34 69.15 25.14 69.11 24.87 68.91 24.64 69 24.56 68.87 24.54 69.04 24.43 69.42 24.1 69.7 24.03 69.68 23.99 69.92 23.87 69.91 23.8 70.61 23.64 70.64 23.52 70.85 23.4 70.79 23.26 70.89 22.94 71 22.88 70.94 22.61 71.05 22.48 70.99 22.39 71 22.13 70.84 21.92 70.74 21.56 70.98 21.51 71.17 21.17 71.11 21.14 71.35 21 71.48 20.83 71.4 20.77 71.6 20.7 71.65 20.3 71.65 20.3"/><polygon class="cls-114" points="66.72 31.82 66.76 31.72 66.61 31.7 66.56 31.7 66.24 31.89 66.43 32.09 66.66 32.17 66.31 32.23 66.11 32.41 66.41 32.38 66.59 32.28 66.93 32.23 67.2 32.13 67.49 32.09 67.75 31.98 67.76 31.9 67.47 31.95 66.72 31.82 66.72 31.82"/><polygon class="cls-115" points="67.88 31.92 68.03 31.91 68.08 31.82 67.94 31.82 67.88 31.92 67.88 31.92"/><polygon class="cls-116" points="55.76 14.45 55.27 14.65 55.14 14.81 55.54 14.64 55.76 14.45 55.76 14.45"/><polygon class="cls-117" points="35.21 32.04 35.32 31.78 34.97 31.9 35.21 32.04 35.21 32.04"/><polygon class="cls-118" points="39.09 20.85 39.22 20.81 39.13 20.76 39.09 20.85 39.09 20.85"/><polygon class="cls-119" points="28.73 26.05 29.04 25.88 29.34 25.43 29.02 25.57 28.73 26.05 28.73 26.05"/><polygon class="cls-120" points="34.91 21.2 34.97 21.25 35.07 21.15 34.96 21.17 34.91 21.2 34.91 21.2"/><polygon class="cls-121" points="35.24 21.12 35.06 21.23 35.23 21.24 35.24 21.12 35.24 21.12"/><polygon class="cls-122" points="34.84 21.4 35.22 21.42 35.41 21.27 34.96 21.32 34.84 21.4 34.84 21.4"/><polygon class="cls-123" points="35.58 21.24 35.79 21.27 35.81 21.12 35.64 21.16 35.58 21.24 35.58 21.24"/><polygon class="cls-124" points="35.59 21.04 35.49 21.18 35.71 21.09 35.59 21.04 35.59 21.04"/><polygon class="cls-125" points="26.79 29.03 26.96 28.75 26.88 28.68 26.67 29.09 26.79 29.03 26.79 29.03"/><polygon class="cls-126" points="26.46 29.55 26.73 29.21 26.59 29.23 26.46 29.55 26.46 29.55"/><polygon class="cls-127" points="58.99 18.14 59.34 18.12 59.49 18 59.04 18.1 58.99 18.14 58.99 18.14"/><polygon class="cls-128" points="61.09 0.16 60.72 0 60.1 0.17 60.47 0.21 61.09 0.16 61.09 0.16"/><polygon class="cls-129" points="59.48 2.68 58.95 2.71 58.92 2.8 59.4 2.73 59.48 2.68 59.48 2.68"/><polygon class="cls-130" points="53.54 5.99 53.46 6.1 53.66 6.08 53.9 5.89 53.54 5.99 53.54 5.99"/><polygon class="cls-131" points="70.83 1.09 71.58 0.76 70.75 0.72 69.9 0.84 69.69 1.03 69.31 1.02 69.08 1.11 69.16 1 68.62 1.22 67.84 1.62 67.99 1.46 68.47 1.17 68.4 0.95 67.91 1.05 67.84 1.17 66.98 1.44 66.81 1.41 67.39 1.2 66.12 1.35 66.47 1.15 67.51 1.08 68.67 0.71 68.01 0.71 67.86 0.81 67.82 0.71 67.24 0.86 67.44 0.71 66.89 0.76 67.14 0.59 66.52 0.69 66.34 0.83 66.14 0.74 65.42 0.84 65.18 1.08 65.2 0.87 63.93 1.13 63.93 1.21 63.66 1.17 63.5 1.29 63.17 1.33 63.52 1.47 63.22 1.5 63.27 1.7 63.04 1.55 62.01 1.65 61.97 1.73 61.02 1.86 60.82 2.03 61.03 2.04 62.23 1.76 62.8 1.7 62.97 1.79 62.43 1.85 62.42 1.95 62.27 1.88 61.27 2.1 61.58 2.34 61.01 2.34 60.64 2.4 60.18 2.41 59.53 2.56 60.11 2.63 59.66 2.75 59.66 2.84 59.51 2.8 59.05 2.87 58.9 3.11 58.54 2.88 57.21 3.4 57.32 3.52 58.09 3.43 57.32 3.66 56.9 3.52 56.74 3.9 56.2 4.02 56.07 4.09 56.23 4.21 55.94 4.14 54.97 4.79 55.14 4.85 55.65 4.66 56.08 4.49 55.61 4.97 54.64 5.29 54.78 5.34 53.71 5.82 53.64 5.95 54.71 5.69 54.51 5.82 54.83 5.74 55.52 5.42 55.72 5.42 55.64 5.51 54.58 5.89 54.25 6.06 54.68 6 55.23 5.83 54.83 6.05 55.19 6.03 55.59 5.84 55.77 5.83 55.97 5.71 56.06 5.75 56.34 5.56 57.38 5.29 58.13 5.2 58.08 5.32 58.88 5.32 59.01 5.55 59.32 5.55 59.2 5.75 59.51 5.74 59.31 5.88 59.52 5.89 59.43 5.99 59.25 6.06 59.45 6.09 59.84 5.96 59.92 5.86 59.9 5.72 60.11 5.9 60.57 5.76 60.35 5.93 60.73 5.87 60.61 5.96 60.9 5.95 60.87 6.04 60.33 6.05 59.83 6.15 59.72 6.24 60.43 6.22 61.03 6.07 60.99 6.36 60.55 6.43 60.34 6.61 60.97 6.45 60.28 6.81 60.98 6.59 61.22 6.63 60.59 6.77 60.79 6.83 60.2 7 60.34 7.11 60.9 6.86 61.24 6.78 60.98 6.89 60.42 7.19 60.67 7.24 60.94 7.12 60.81 7.32 60.97 7.47 61.17 7.17 61.32 7.24 61.47 7.18 61.42 7.48 61.26 7.59 61.45 7.54 61.77 7.78 61.94 7.69 61.95 7.85 62.1 7.73 62.09 7.87 62.41 7.79 62.25 7.94 62.63 7.85 62.88 7.67 62.85 7.77 63.05 7.66 63.16 7.9 63.71 7.77 63.84 7.36 63.52 7.18 63.82 6.95 64.01 6.92 63.91 6.83 64.19 6.81 64.15 6.72 63.9 6.66 64.19 6.61 63.93 6.54 64.39 6.29 64.68 6.28 64.62 6.18 64.77 6.05 64.97 6.03 64.8 6.17 64.99 6.16 65.69 5.88 66.02 5.52 66.32 5.42 66.24 5.24 66.43 5.35 66.75 5.29 66.76 5.2 66.9 5.26 66.96 5.17 67.08 5.21 68.13 4.89 68.37 4.72 68.55 4.7 68.47 4.67 68.67 4.65 69.1 4.44 68.17 4.5 67.56 4.72 67.22 4.75 67.6 4.58 67.11 4.62 67.35 4.42 67.49 4.46 68.03 4.31 67.17 4.33 67.49 4.23 67.65 4.26 68 4.21 68.3 4.21 68.52 4.38 68.88 4.39 68.95 4.26 69.06 4.37 69.24 4.33 69.08 3.99 68.76 4.04 68.88 3.95 68.25 3.92 67.99 4.04 67.97 3.96 67.74 3.81 67.48 3.76 67.88 3.72 68.1 3.65 67.85 3.54 68.26 3.59 68.38 3.43 68.9 3.48 68.35 3.54 68.53 3.59 68.85 3.6 69.41 3.46 69.01 3.46 68.79 3.37 68.87 3.21 69.61 3.22 69.81 3.12 69.56 3.12 69.17 3.15 69.29 3.02 68.96 3.1 68.75 3.07 68.78 2.92 69.43 2.93 69.51 2.97 69.66 2.88 69.53 2.69 68.92 2.74 68.65 2.67 69.09 2.56 69.87 2.54 69.97 2.54 69.59 2.36 69.12 2.45 68.76 2.49 68.81 2.4 69.72 2.23 70.42 2.26 70.3 2.14 71.06 2.05 70.75 1.91 70.3 1.95 69 2.06 69.07 1.61 69.32 1.51 70.11 1.43 70.41 1.3 69.66 1.37 69.83 1.25 70.83 1.09 70.83 1.09"/><polygon class="cls-132" points="59.93 5.98 59.85 6.06 60.23 6.01 60.04 5.94 59.93 5.98 59.93 5.98"/><polygon class="cls-133" points="60.6 6.28 59.84 6.3 60.14 6.49 60.6 6.28 60.6 6.28"/><polygon class="cls-134" points="60.72 6.21 60.75 6.34 60.94 6.14 60.72 6.21 60.72 6.21"/><polygon class="cls-135" points="58.19 18.24 58.1 18.19 57.77 18.26 57.57 18.38 57.24 18.45 57.06 18.56 57.49 18.65 57.12 18.77 56.91 18.83 56.87 18.9 57.2 18.8 57.59 18.67 57.69 18.67 57.7 18.67 58.05 18.51 58.22 18.4 58.6 18.32 58.66 18.21 58.37 18.18 58.19 18.24 58.19 18.24"/><polygon class="cls-136" points="56.55 18.56 56.31 18.64 56.32 18.57 55.92 18.67 55.76 18.64 55.3 18.69 55.11 18.76 54.93 18.73 54.52 18.87 54.51 18.83 53.92 19.13 53.67 19.32 53.64 19.42 53.7 19.43 54.08 19.13 54.34 19.02 54.79 18.94 55.02 18.95 55.35 18.82 55.6 18.91 55.89 18.82 55.94 18.86 55.86 18.94 55.82 19.02 56.26 18.82 56.5 18.75 56.56 18.69 56.59 18.71 56.83 18.56 56.55 18.56 56.55 18.56"/><polygon class="cls-137" points="42.84 7.89 43.16 7.56 43.61 7.52 42.96 7.91 43.88 7.78 44.81 7.37 44.64 7.21 45.05 7.26 45.59 6.75 45.68 6.47 45.28 6.59 45.01 6.29 44.78 6.57 44.41 6.51 43.86 6.74 43.27 6.63 42.66 6.85 42.76 7.04 42.44 7.11 42.8 7.65 42.34 8.02 42.84 7.89 42.84 7.89"/><polygon class="cls-138" points="43.77 6.34 44.49 5.88 44.8 5.89 44.11 6.18 44.21 6.25 43.95 6.33 44.22 6.37 44.95 5.96 45.7 5.43 45.61 5.67 46.4 5.29 46.11 5.59 45.85 5.64 45.3 6.07 46.36 5.63 46.95 5.14 46.83 5.43 47.71 5.09 48.21 5.16 47.75 5.2 46.81 5.56 47.06 5.67 46.64 5.69 45.46 6.16 45.59 6.36 46.12 6.18 46.48 6.14 46.41 6.27 47.02 6.18 46.39 6.38 45.71 6.7 46.24 6.75 46.5 6.52 46.9 6.63 47.31 6.31 47.39 6.27 47.2 6.71 46.26 7.02 45.98 6.98 45.32 7.26 45.34 7.56 45.13 7.82 45.84 7.68 45.85 7.52 46.09 7.54 46.11 7.41 46.77 7.26 47.26 7 47.23 6.87 47.5 6.88 47.47 6.75 47.77 6.74 48.24 6.59 48.19 6.72 49.16 6.17 48.74 6.09 47.97 6.35 47.71 6.5 47.6 6.34 48.41 6.13 49.14 5.75 48.84 5.73 49.73 5.37 49.26 5.13 48.47 5.43 49.02 5.02 49.57 4.86 50.49 4.46 50.37 4.42 49.89 4.59 50.25 4.39 51.2 4.11 51.16 3.73 51.71 3.63 51.84 3.46 52.29 3.19 52.22 3.11 52.44 3.09 53.37 2.5 53.35 2.37 54.49 1.69 54 1.74 53.64 1.98 53.7 1.78 53.52 1.75 53.12 1.9 52.93 1.89 51.77 2.39 52.15 2.13 51.01 2.44 50.66 2.69 49.81 2.9 50.03 3.01 49.31 3.12 48.32 3.49 48.51 3.63 48.22 3.6 47.42 3.88 47.83 3.87 47.34 4.09 47.11 4.11 46.75 4.23 47.09 4.24 46.46 4.44 46.33 4.64 47.02 4.38 47.03 4.47 47.45 4.29 47.76 4.36 46.39 4.67 46.61 4.71 46.23 4.89 45.62 4.91 45.46 4.96 45.76 5.16 44.44 5.62 43.67 6.08 43.15 6.47 43.77 6.21 43.77 6.34 43.77 6.34"/><polygon class="cls-139" points="40.1 9.6 40.24 9.63 40.74 9.34 40.96 9.37 41.46 9.12 41.18 8.95 40.25 9.23 40.07 9.41 39.58 9.47 39.41 9.99 39.72 9.87 40.1 9.6 40.1 9.6"/><polygon class="cls-140" points="37.85 10.88 37.28 10.96 36.56 11.59 36.68 11.64 37.85 10.88 37.85 10.88"/><polygon class="cls-141" points="42.77 8.28 42.78 8.1 41.59 8.5 42.17 8.64 42.77 8.28 42.77 8.28"/><polygon class="cls-142" points="36.53 11.86 36.25 11.93 36.09 12.06 36.34 12.15 36.53 11.86 36.53 11.86"/><polygon class="cls-143" points="40.63 9.61 40.41 9.82 40.6 9.79 40.92 9.55 40.63 9.61 40.63 9.61"/><polygon class="cls-144" points="43.54 8.05 42.94 8.3 42.6 8.59 43.46 8.27 43.54 8.05 43.54 8.05"/><polygon class="cls-145" points="34.51 13.84 34.78 13.85 34.91 13.51 35.37 13.02 35.65 13.1 35.68 12.95 36.03 12.67 35.65 12.52 35.59 12.64 34.95 13.03 34.52 13.57 34.24 13.71 34.23 13.92 33.95 14.12 33.83 14.34 34.44 14.03 34.51 13.84 34.51 13.84"/><polygon class="cls-146" points="44.76 7.86 44.64 7.97 44.93 7.98 44.94 7.81 44.76 7.86 44.76 7.86"/><polygon class="cls-147" points="40.44 10.25 40 10.39 40.01 10.54 40.32 10.5 40.44 10.25 40.44 10.25"/><polygon class="cls-148" points="40.7 10.49 41.47 9.93 41.43 10.15 41.99 10.05 42.18 9.76 42.56 9.71 42.31 9.37 41.72 9.44 40.81 10.09 40.7 10.49 40.7 10.49"/><polygon class="cls-149" points="45.68 8.32 45.84 8.4 46.51 8.11 46.54 7.98 46.68 8.03 47 7.89 47.07 7.73 47.33 7.74 47.52 7.5 48.21 7.39 48.74 7.12 48.41 6.91 47.66 7.07 46.61 7.63 46.66 7.79 46.11 7.79 45.85 7.89 45.76 8.04 45.58 8.01 45.52 8.16 45.15 8 44.63 8.22 44.57 8.1 43.79 8.44 43.63 8.61 43.51 8.5 42.81 8.77 42.46 9.08 43.47 8.88 43.89 8.54 44.4 8.59 44.75 8.84 45.49 8.54 45.68 8.32 45.68 8.32"/><polygon class="cls-150" points="36.03 12.97 36.56 12.79 35.87 13.31 35.77 13.46 36.51 13.14 36.52 12.97 36.71 13.02 37.05 12.48 37.11 12.71 37.64 12.35 37.3 12.89 38.13 12.32 38.23 12.17 39.12 11.55 39.35 11.5 39.71 11.24 39.8 10.94 39.27 11.12 38.83 11.42 38.41 11.29 38.63 11.65 37.84 12.1 37.17 12.13 36.78 12.43 36.66 12.39 36.22 12.66 36.48 12.63 36.03 12.97 36.03 12.97"/><polygon class="cls-151" points="40.47 11.32 40.07 11.44 39.63 11.81 40.35 11.68 40.47 11.32 40.47 11.32"/><polygon class="cls-152" points="49.86 7.28 50.3 7.16 49.71 7.08 49.2 7.38 48.7 7.47 49.31 7.6 49.86 7.28 49.86 7.28"/><polygon class="cls-153" points="45.28 8.82 44.61 9.25 44.14 9.29 43.67 9.57 43.66 10.08 43.97 10.22 44.36 10.03 44.14 9.87 44.83 9.56 45.28 8.82 45.28 8.82"/><polygon class="cls-154" points="34.23 15.95 34.99 15.83 35.73 15.18 35.57 14.77 36.86 13.56 36.1 13.7 35.54 14.21 34.68 14.48 33.72 15.14 34.16 15.18 34.15 15.49 33.88 15.67 34.08 15.78 33.9 16.18 34.23 15.95 34.23 15.95"/><polygon class="cls-155" points="42.68 10.54 43 10.05 42.74 10.12 42.31 10.44 41.98 10.49 42.05 10.84 41.89 11.08 41.39 11.17 41.31 11.37 41.72 11.33 42.13 11.16 42.97 11.12 43.13 10.94 42.95 10.82 43.31 10.8 43.58 10.58 43.1 10.34 42.68 10.54 42.68 10.54"/><polygon class="cls-156" points="37.1 14.98 37.5 14.95 38.51 14.41 38.71 14.55 40 13.72 40.18 13.36 40.54 13.3 40.64 13.05 40.82 13.08 42.04 12.55 42.33 12.02 42.53 11.99 42.44 11.86 41.69 11.98 41.66 12.13 41.31 12.21 41.02 12.02 40.2 11.83 39.79 12.06 39.38 12.15 39.75 12.47 39.98 12.45 39.85 12.65 39.4 12.51 38.42 13.21 38.48 12.95 37.82 13.21 37.71 13.45 37.4 13.64 37.23 13.4 36.44 14.09 36.35 14.45 36.16 14.82 36.62 14.54 36.81 14.56 37.41 14.02 37.36 14.34 36.69 14.7 36.55 14.88 36.91 14.83 38.67 13.81 39.04 13.86 37.75 14.45 37.1 14.98 37.1 14.98"/><polygon class="cls-157" points="49.8 8.59 49.42 8.77 49.63 8.81 49.8 8.59 49.8 8.59"/><polygon class="cls-158" points="50.76 8.38 50.53 8.47 50.6 8.57 50.74 8.48 50.76 8.38 50.76 8.38"/><polygon class="cls-159" points="43.37 11.66 43.02 11.84 43.1 11.94 44.14 11.56 44.44 11.34 43.46 11.41 43.37 11.66 43.37 11.66"/><polygon class="cls-160" points="51.46 8.3 51.42 8.32 51.56 8.36 51.54 8.28 51.46 8.3 51.46 8.3"/><polygon class="cls-161" points="47.53 10.18 47.67 9.88 47.4 9.93 47.53 10.18 47.53 10.18"/><polygon class="cls-162" points="51.77 7.37 51.34 7.23 51.14 7.53 51.01 7.15 50.26 7.32 50.11 7.67 49.78 7.7 49.68 7.9 49.5 7.72 49.1 8.06 49.06 7.73 48.47 7.59 47.69 7.97 47.78 8.1 47.55 8.07 47.24 8.27 47.55 8.31 47.12 8.48 47.15 8.67 47.79 8.97 47.33 8.98 47.09 9.28 47.03 8.88 46.79 8.64 47.27 8.08 46.61 8.28 46 8.73 46.11 8.92 45.84 8.93 45.81 9.49 46.7 9.71 47.22 9.49 47.36 9.28 47.56 9.4 49.16 8.8 49.01 8.59 50.05 8.47 49.75 8.23 50.39 8.22 50.53 8.33 50.62 8.19 50.77 8.26 51.25 8.2 50.92 8.4 50.96 8.49 51.46 8.24 51.55 8.11 51.69 8.19 51.96 8.11 51.98 8.21 52.29 8.13 52.69 8.29 52.54 8.49 53.04 8.38 53.14 8.21 53.82 8.11 53.36 8.35 53.2 8.56 52.42 8.59 52.05 8.9 52.48 8.96 51.71 9.29 51.93 9.4 51.21 9.46 51.07 9.83 51.58 9.75 52.02 9.45 52.45 9.33 52.65 9.15 52.72 9.26 53.42 9.19 53.2 9.33 53.51 9.35 54.23 9.18 54.56 9.22 55.48 9.03 55.66 8.65 55.85 8.58 55.71 8.27 55.33 8.31 55.42 8.19 55.27 8.17 55.09 8.27 54.89 8.23 54.72 8.35 54.59 8.18 54.09 8.1 54.58 7.82 54.94 7.84 55.06 7.74 55.2 7.83 55.53 7.62 55.97 7.86 56.03 7.51 56.43 7.41 56.36 7.33 56.51 7.26 55.95 7.24 55.8 7.36 55.78 7.22 55.36 7.45 55.54 7.25 55.23 7.18 54.99 7.28 54.95 7.42 54.85 7.31 54.67 7.44 54.56 7.35 54.19 7.47 54.31 7.36 53.68 7.42 54.41 7.15 53.99 7.12 53.19 7.43 53.47 7.14 53.03 6.95 52.67 7.18 52.58 7.46 52.1 7.38 52.2 6.98 51.95 7.04 51.77 7.37 51.77 7.37"/><polygon class="cls-163" points="48.66 10.43 48.5 10.38 48.42 10.42 48.56 10.47 48.66 10.43 48.66 10.43"/><polygon class="cls-164" points="49.66 10.65 50.16 10.52 50.2 10.5 49.78 10.33 49.3 10.4 49.14 10.39 48.69 10.47 48.62 10.59 48.28 10.51 48.17 10.62 48.2 10.97 48.35 11.07 48.1 11.36 48.56 11.09 48.82 11.2 49.06 10.92 49.26 10.79 49.41 10.59 49.41 10.66 49.66 10.65 49.66 10.65"/><polygon class="cls-165" points="51.45 9.92 51.38 9.98 51.46 9.97 51.6 9.96 51.69 9.9 51.63 9.89 51.45 9.92 51.45 9.92"/><polygon class="cls-166" points="51.02 10.18 51.24 10.19 51.29 10.18 51.4 10.08 51.34 10.06 51.13 10.11 51.02 10.18 51.02 10.18"/><polygon class="cls-167" points="36.19 21.21 36.16 21.17 36.1 21.24 36.19 21.21 36.19 21.21"/><polygon class="cls-168" points="36.22 21.24 36.29 21.28 36.38 21.2 36.25 21.21 36.22 21.24 36.22 21.24"/><polygon class="cls-169" points="36.64 21.2 36.58 21.09 36.45 21.17 36.64 21.2 36.64 21.2"/><polygon class="cls-170" points="36.65 21.05 36.76 21.17 36.9 21.14 36.74 21.03 36.65 21.05 36.65 21.05"/><polygon class="cls-171" points="38.36 20.89 38.49 20.9 38.45 20.78 38.36 20.89 38.36 20.89"/><polygon class="cls-172" points="37.91 21.44 38.04 21.41 38 21.33 37.87 21.4 37.91 21.44 37.91 21.44"/><polygon class="cls-173" points="39.11 20.94 38.86 20.85 38.58 20.97 38.28 20.95 37.64 21.28 37.85 21.36 38.17 21.19 38.13 21.29 38.31 21.18 38.46 21.21 38.61 21.02 38.6 21.16 39.11 20.94 39.11 20.94"/><polygon class="cls-174" points="57.58 11.67 57.59 11.77 58.05 11.7 58.2 11.65 58.15 11.6 57.7 11.64 57.58 11.67 57.58 11.67"/><polygon class="cls-175" points="60.74 10.96 60.94 10.79 60.57 10.83 60.33 11.02 60.02 10.87 59.8 11.05 60.03 10.6 59.94 10.56 60.06 10.52 60.03 10.45 59.69 10.63 59.61 10.84 59.45 11.09 59.41 11.41 59.1 11.66 59.15 11.7 59.47 11.57 59.98 11.47 60.28 11.29 60.49 11.48 60.77 11.27 60.79 11.15 61.09 11.36 61.27 11.31 61.24 10.98 61.01 11.18 60.74 10.96 60.74 10.96"/><polygon class="cls-176" points="58.92 11.91 58.75 11.91 58.6 12.23 58.72 12.29 59.16 12.05 58.81 12.12 58.92 11.91 58.92 11.91"/><path class="cls-177" d="M95.19,127.41l-.69.06-.11-.15-.18.06.16-.21-.39.09-.34.09.29-.15.22,0,.31-.22,0-.14-.44.11-.38.17-.76.52-.33.41.23-.5.6-.4.21-.3,1-.4,1-.21.36-.3.07-.15.56-.21.32-.31H97l-.14-.22-.45,0-.11.12,0-.15L96,125l0,.06-.59.3,0,.08-.1,0,0-.2.47-.16.08-.09.31-.18-.72.11.05-.08-.24.13,0-.09-.15,0-.12.14-.34-.22-.23.07.09-.11h-.2l.15-.16-.38-.16-.28.14.08-.14-.22.08.12-.17-.32.07.1-.13-.17,0-.06-.11-.16.08,0-.13-.17,0,0,.39-.19.07v.18l-.16-.09-.31.27,0,.11-.12-.08,0,.11-.38.2.31-.33-.44,0-.17.06,0-.11-.35.06.36-.14,0-.27-.29,0-.49.18-.06-.13-.2.1v-.07H89.8l-.3.22-.41.16L89,125l-.53.23-.18.15.33.14-.19.21.26,0,0,.16h.24l-.29.52.82.06v.43l-.75.58.38.08,0,.18.34.13-.16.1.11.19-.24,0,.08.19-.92,0-.42-.39.08-.2-.15,0L87,128l-.16.17-.09-.11-.79.19h-.5l-.76.22-.55.37,0-.2-.37-.16-.32.14v.09l-.31,0-.14-.37.11-.38.19-.19-.13,0,.22-.15-.1-.06.27-.1-.16,0,.36-.17L84,127h-.42l-.13.16-.45.07-.14-.08,1.11-.3.07-.22.25,0v-.11l.41-.18.16-.42-.69.28-.92.22.71-.39.76-.12,0-.37.42-.2.13,0,.31-.09-.08,0,.31-.06-.4-.06.22-.09L86,125l.38-.27,0-.1.16-.07,0-.16H86l.38-.32-.2,0,.1-.12h-.39l-1.18.6.14.14-.13.6-.54-.19-.52,0-.29.46-.21-.31-.79.32-.71-.51-.42.09-.19.39-.33.16.38.08-.15.3,1-.31-.16.19v.18l.21-.23.21,0-.61.49.12.44-.39-.28-.5.15.27.09-1.68.85-.47.08-.34.23-.72.08-.63.47.09.18.12-.21.49-.21-.22.32.28.28-.61-.1-.12.22h-.49l-.49.46-1.11.49-.34-.16-.49.35-1.07.54-.47.06-.49.35,0,.19-.29.21-.24-.15-.1.39-.74.13-.34.09-.13.45-.34.29,0,.21-.29.15-.14.22.07.1-.31.16.13-.43.32-.24.31-.42-.08,0-.37.32v.14l-.36.24-.34.72-.44.24v.12h-.15l-.82.49-.22.06-.6.39-.41.27-.24.1-.58.52-.31.16-.39.32-.32.19-.46.3-.23.25-.23,0v.18l-.45.31-.08-.19-.56.68h-.24l0,.25-.23,0-.2.09-.23.51-.38.45,0,.21h-.22L61,140l-.34.47-.22.72-.5.52,0,.28.91-.6h.23l.63-.57.49-.22-.38.35-.26.12.24.09-.61.53.05-.22-.28.24-.51.76-.12.37h0l.52-.48v.2l.22,0,.82-.75-.14-.19.35-.05.25-.45.3.33-.5.85-.11-.12-.18.19,0,.43-.14.23.05.13.34-.28.09.13.43-.41.24.24.25-.64.26.13,0,.22.22-.13.1.24.24-.55.52-.25-.06-.21h.2l.23-.32,0,.26.18,0-.11.37-.23.16-.21.39.1.07-.4.37-.2.54.06.06.29-.4V143l.14,0,.27-.39.16-.09-.06-.14.23-.2.08-.4.23-.17-.09-.13.25-.38,0-.14.19-.08.2-.52-.08-.28-.31-.06.35-.17.24-.57v.63l.18.13.2-.52.2-.1,0-.48.15-.34.44-.13.17-.27.08.15.21-.12.13-.27.18.12.68-.5.13-.22.09.07.32-.19.18-.27.81-.14.46-.27-.39,0,.26-.2.21,0,0,.13.11-.14,0-.25.24.15.22-.23,0,.14.29-.15v.23l.24-.15.14,0,.36-.15-.06.19.24-.25.32.18.1-.16h0l0,.2.27-.24-.1.2,0,0,.42-.18.34.14.47-.33-.21.37.11.08.38-.18h.11l.12-.16,0,.11.13,0v-.1l.12,0,0-.17.41,0,.07.07.15-.07.12-.13v.12l.17-.07.3.07,0,.17-.17.17-.07-.25-.3.23-.3.1.34.13.07,0v0l.14,0,0,.14.33.44.08,0,0,.29.23.09.21.18,0,.13h.25l.16.12.32,0,.17-.07.27-.23.11.37h.43l.07,0,.08.1.33-.16.15,0,.17-.09.49,0h.05l.3.07,0,.09.12,0,0,.06.1,0,.05.07.1,0,.08.08.25-.06h.35l-.16.28.37,0,.53-.15.15,0,.11.16.63-.1.19.06.13-.16-.51,0-.07-.08-.27,0-.12-.12h-.14v.08l-.35,0-.13-.05h-.6l-.46-.25.64-.2.07.09.47.13h.42l.17-.08.07.09.34-.07h.17l-.06.09.05.06.47-.11,0,.05.17-.1,0,.09.66,0,.36.12,0,.17h.11l-.1.09.3.07.34-.08h.19l.46-.17h.33l.43-.1.27-.11.34,0,.39-.12.23-.21.16-.09,0,0,.3-.08h.91l.34-.09.48-.13.24-.08v-.06h.19l-.1.06h.32l.41.06.11.19.68.06v.09l.15,0-.09,0,.1,0,.12.07.18-.13h.33l0-.07.09.09.14-.05-.09-.16.12-.13v0l.44-.1.29.21,0-.09H94l0-.06H94l.07,0-.17-.05v0h-.38l-.33.09-.42.29h-.1l-.13.06-.14-.06-.44-.23-.22-.47,0-.19-.1-.05.06-.07h-.34l-.41.14-.17,0-.06.11-.53.24H90l.1-.21L90,135.5h-.1v-.12l.19,0v-.29l-.14.06.14-.38-.16,0-.37.18-.49.34v.26l0,.08-.14.13.08,0-.34.16-.31.2-.22.16h-.26l-.19.09-.28-.1-.29,0-.41-.22-.15-.41v-.26l-.22-.2v-.08h-.1l.51-.48.1-.13-.1-.05.19-.06.12-.14,0,0,.47-.19.1-.11.21,0,0,.07.18-.06,0-.07.09,0,0-.07-.08,0,.27-.05-.05-.1-.32,0,.29-.11.26-.18.28-.09.27-.16.22,0v0l.07,0v.06h.1l0,0,.36-.25.52,0v.19h.08v0h.14l-.11.09.19.07.08-.07v.06l0,0,.37.1,0,0,.19-.1,0-.32-.23-.14-.08-.1-.48-.25,0-.35.36-.37.17-.26.31-.28.27-.18-.25,0,.36-.19-.33.06.12-.15.27,0-.28-.17-.44-.08,0-.13.28,0-.2-.19.21-.16,0,.26.24,0v.11l.17-.17,0-.11L91.7,130l.11,0,.14.14.17-.25,0-.14-.18,0,.42-.33.33-.13.21-.12,0-.37.42-.38,0-.15.12,0v-.09l.13,0,.25-.16,0-.11.47-.18.24-.27v.17l.15,0-.26.21-.21.16.32.12.32-.29-.08-.11.5-.14.33-.21.23-.1-.36,0-.25.14Zm-12.41,2.88.47,0,.75.27,0,.24-.21.07-.09-.28-.4.07-.56-.11,0-.21Zm-6.22,1.07-.46-.07,1.07-.42.43-.59.64-.27-1.16,1.21.06.11-.79.53-.26-.05.47-.45Zm-3.3.84.45-.59-1,.53L74.05,131l.19,0-.17.29.71-.49-.06.32-.38.21-.17.43-.1-.24-.27.45-.54.27ZM91,129.47l-.72.37V130l-.84.61H89l.35-.27-.2,0,.06-.13-.23-.14-.34.27.18-.36-.12-.1-.51.12-.08.26-.13,0,0,.32.2.17-.25.4-.39-.12,0-.6.78-.59-.43.1-.53.25-.23,0-.18.12-.39.4-.52.19H85.9l.57-.64.43-.47.45-.17.33.08.28-.11.34.18,1.14-.33.46.1-.06.16-.51,0,.12.4-.18.18.2.05.13-.16.48-.24.17-.28.62-.3h.07l.2,0-.16.22Z" transform="translate(-37 -114.93)"/><polygon class="cls-178" points="57.64 9.75 57.55 9.83 57.66 9.82 57.64 9.75 57.64 9.75"/></g></g></g></svg>