{"asset":{"generator":"3D Builder","version":"2.0"},"scene":0,"scenes":[{"nodes":[0]}],"nodes":[{"mesh":0,"matrix":[39.370079040527344,0,0,0,0,-4.6932791519793682E-6,-39.370075225830078,0,0,39.370075225830078,-4.6932791519793682E-6,0,0,0.0016938357148319483,0.048380013555288315,1]}],"meshes":[{"primitives":[{"attributes":{"POSITION":0,"TEXCOORD_0":1},"mode":4,"indices":2,"material":0}]}],"materials":[{"pbrMetallicRoughness":{"baseColorFactor":[1,1,1,1],"metallicFactor":1,"roughnessFactor":1,"baseColorTexture":{"index":0,"texCoord":0},"metallicRoughnessTexture":{"index":1,"texCoord":0}},"alphaMode":"OPAQUE"}],"textures":[{"source":0,"sampler":0},{"source":1,"sampler":0}],"images":[{"uri":"4159458917_2048x2048_6195987693227547908.png"},{"uri":"3376572045_512x512_17319628118832143767.png"}],"samplers":[{"magFilter":9729,"wrapS":10497,"wrapT":10497}],"accessors":[{"bufferView":0,"byteOffset":0,"count":11849,"componentType":5126,"type":"VEC3","min":[-0.0064447238110005856,-0.0043711238540709019,-4.3023283069487661E-5],"max":[0.0064395684748888016,0.0068272282369434834,0.0087475795298814774]},{"bufferView":1,"byteOffset":0,"count":11849,"componentType":5126,"type":"VEC2"},{"bufferView":2,"byteOffset":0,"count":42624,"componentType":5125,"type":"SCALAR"}],"bufferViews":[{"buffer":0,"byteOffset":0,"byteLength":142188,"byteStride":12,"target":34962},{"buffer":0,"byteOffset":142188,"byteLength":94792,"byteStride":8,"target":34962},{"buffer":0,"byteOffset":236980,"byteLength":170496,"target":34963}],"buffers":[{"byteLength":407476,"uri":"Laptop.bin"}]}